<?xml version="1.0" encoding="UTF-8" standalone="no"?>
<!DOCTYPE svg PUBLIC "-//W3C//DTD SVG 1.1//EN" "http://www.w3.org/Graphics/SVG/1.1/DTD/svg11.dtd">
<svg width="100%" height="100%" viewBox="0 0 5773 1784" version="1.1" xmlns="http://www.w3.org/2000/svg" xmlns:xlink="http://www.w3.org/1999/xlink" xml:space="preserve" xmlns:serif="http://www.serif.com/" style="fill-rule:evenodd;clip-rule:evenodd;stroke-linejoin:round;stroke-miterlimit:2;">
    <g transform="matrix(1,0,0,1,-18123,-3514)">
        <g id="blue" transform="matrix(9.76562,0,0,9.76562,0,0)">
            <g id="Layer15">
                <g id="Layer26">
                </g>
                <g id="Layer25">
                    <g id="Layer23">
                    </g>
                    <g id="Layer4">
                        <g id="Layer5">
                        </g>
                        <g id="Layer6">
                        </g>
                    </g>
                </g>
                <g id="Layer9">
                </g>
            </g>
            <g id="Layer14">
                <g transform="matrix(0.822542,0,0,0.822542,318.878,91.3779)">
                    <path d="M1873.61,336.218L1873.61,492L1890.18,492L1890.18,420.655L1947.41,420.655L1947.41,403.2L1890.18,403.2L1890.18,353.673L1955.44,353.673L1955.44,336.218L1873.61,336.218Z" style="fill:rgb(0,65,255);fill-rule:nonzero;"/>
                    <path d="M1985.62,427.636L2006.74,354.982L2007.09,354.982L2027.85,427.636L1985.62,427.636ZM1998.01,336.218L1949.51,492L1966.43,492L1980.39,445.091L2033.08,445.091L2046.69,492L2065.01,492L2016.33,336.218L1998.01,336.218Z" style="fill:rgb(0,65,255);fill-rule:nonzero;"/>
                    <path d="M2077.22,336.218L2077.22,492L2093.8,492L2093.8,437.455L2114.56,413.236L2159.58,492L2180.52,492L2125.9,399.055L2178.42,336.218L2156.96,336.218L2093.8,413.891L2093.8,336.218L2077.22,336.218Z" style="fill:rgb(0,65,255);fill-rule:nonzero;"/>
                    <path d="M2193.6,336.218L2193.6,492L2280.14,492L2280.14,474.545L2210.18,474.545L2210.18,420.655L2274.91,420.655L2274.91,403.2L2210.18,403.2L2210.18,353.673L2279.62,353.673L2279.62,336.218L2193.6,336.218Z" style="fill:rgb(0,65,255);fill-rule:nonzero;"/>
                </g>
                <g transform="matrix(0.224914,0,0,0.224914,1439.07,428.557)">
                    <path d="M1936.94,453.164L1936.94,336.218L1920.37,336.218L1920.37,450.109C1920.37,458.691 1918.94,465.527 1916.1,470.618C1913.25,475.709 1908.04,478.255 1900.48,478.255C1896.41,478.255 1893.06,477.491 1890.45,475.964C1887.83,474.436 1885.79,472.291 1884.34,469.527C1882.89,466.764 1881.87,463.491 1881.29,459.709C1880.7,455.927 1880.41,451.782 1880.41,447.273L1880.41,440.727L1863.84,440.727L1863.84,450.327C1863.84,465.164 1866.98,476.4 1873.26,484.036C1879.54,491.673 1888.5,495.491 1900.13,495.491C1907.11,495.491 1912.95,494.291 1917.66,491.891C1922.38,489.491 1926.16,486.291 1929.01,482.291C1931.86,478.291 1933.89,473.745 1935.11,468.655C1936.33,463.564 1936.94,458.4 1936.94,453.164Z" style="fill:rgb(0,65,255);fill-rule:nonzero;"/>
                    <rect x="1964.86" y="336.218" width="16.575" height="155.782" style="fill:rgb(0,65,255);fill-rule:nonzero;"/>
                    <path d="M2108.8,435.709L2108.8,336.218L2092.23,336.218L2092.23,435.709C2092.23,449.673 2089.47,460.255 2083.94,467.455C2078.42,474.655 2070.36,478.255 2059.78,478.255C2048.61,478.255 2040.06,474.655 2034.13,467.455C2028.2,460.255 2025.23,449.673 2025.23,435.709L2025.23,336.218L2008.65,336.218L2008.65,435.709C2008.65,456.509 2013.16,471.673 2022.18,481.2C2031.19,490.727 2043.73,495.491 2059.78,495.491C2075.48,495.491 2087.58,490.509 2096.07,480.545C2104.56,470.582 2108.8,455.636 2108.8,435.709Z" style="fill:rgb(0,65,255);fill-rule:nonzero;"/>
                    <path d="M2247.17,453.164L2247.17,336.218L2230.59,336.218L2230.59,450.109C2230.59,458.691 2229.17,465.527 2226.32,470.618C2223.47,475.709 2218.26,478.255 2210.7,478.255C2206.63,478.255 2203.28,477.491 2200.67,475.964C2198.05,474.436 2196.01,472.291 2194.56,469.527C2193.11,466.764 2192.09,463.491 2191.51,459.709C2190.93,455.927 2190.64,451.782 2190.64,447.273L2190.64,440.727L2174.06,440.727L2174.06,450.327C2174.06,465.164 2177.2,476.4 2183.48,484.036C2189.76,491.673 2198.72,495.491 2210.35,495.491C2217.33,495.491 2223.18,494.291 2227.89,491.891C2232.6,489.491 2236.38,486.291 2239.23,482.291C2242.08,478.291 2244.11,473.745 2245.33,468.655C2246.56,463.564 2247.17,458.4 2247.17,453.164Z" style="fill:rgb(0,65,255);fill-rule:nonzero;"/>
                    <rect x="2275.08" y="336.218" width="16.575" height="155.782" style="fill:rgb(0,65,255);fill-rule:nonzero;"/>
                    <path d="M2347.84,353.673L2347.84,492L2364.41,492L2364.41,353.673L2405.94,353.673L2405.94,336.218L2306.31,336.218L2306.31,353.673L2347.84,353.673Z" style="fill:rgb(0,65,255);fill-rule:nonzero;"/>
                    <path d="M2491.78,381.818L2507.49,381.818C2507.26,373.236 2505.95,365.855 2503.56,359.673C2501.18,353.491 2497.92,348.364 2493.79,344.291C2489.66,340.218 2484.86,337.236 2479.4,335.345C2473.93,333.455 2468,332.509 2461.6,332.509C2455.9,332.509 2450.35,333.418 2444.94,335.236C2439.53,337.055 2434.7,339.818 2430.45,343.527C2426.21,347.236 2422.81,351.964 2420.25,357.709C2417.69,363.455 2416.41,370.255 2416.41,378.109C2416.41,385.236 2417.54,391.164 2419.81,395.891C2422.08,400.618 2425.11,404.473 2428.89,407.455C2432.66,410.436 2436.94,412.836 2441.71,414.655C2446.48,416.473 2451.33,418.073 2456.28,419.455C2461.22,420.836 2466.08,422.182 2470.85,423.491C2475.62,424.8 2479.89,426.509 2483.67,428.618C2487.45,430.727 2490.48,433.455 2492.74,436.8C2495.01,440.145 2496.15,444.509 2496.15,449.891C2496.15,455.564 2495.22,460.218 2493.35,463.855C2491.49,467.491 2489.05,470.364 2486.03,472.473C2483,474.582 2479.6,476.073 2475.82,476.945C2472.04,477.818 2468.29,478.255 2464.57,478.255C2459.91,478.255 2455.38,477.527 2450.96,476.073C2446.54,474.618 2442.67,472.364 2439.35,469.309C2436.04,466.255 2433.36,462.364 2431.33,457.636C2429.29,452.909 2428.27,447.273 2428.27,440.727L2412.57,440.727C2412.57,450.182 2413.94,458.364 2416.67,465.273C2419.41,472.182 2423.13,477.855 2427.84,482.291C2432.55,486.727 2438.02,490.036 2444.24,492.218C2450.46,494.4 2457.06,495.491 2464.04,495.491C2469.74,495.491 2475.47,494.655 2481.23,492.982C2486.99,491.309 2492.19,488.618 2496.84,484.909C2501.5,481.2 2505.31,476.4 2508.27,470.509C2511.24,464.618 2512.72,457.527 2512.72,449.236C2512.72,441.527 2511.59,435.127 2509.32,430.036C2507.05,424.945 2504.03,420.727 2500.25,417.382C2496.47,414.036 2492.19,411.382 2487.42,409.418C2482.65,407.455 2477.8,405.745 2472.85,404.291C2467.91,402.836 2463.05,401.491 2458.28,400.255C2453.51,399.018 2449.24,397.455 2445.46,395.564C2441.68,393.673 2438.66,391.236 2436.39,388.255C2434.12,385.273 2432.99,381.382 2432.99,376.582C2432.99,371.491 2433.77,367.236 2435.34,363.818C2436.91,360.4 2439.01,357.673 2441.62,355.636C2444.24,353.6 2447.23,352.145 2450.61,351.273C2453.98,350.4 2457.41,349.964 2460.9,349.964C2469.51,349.964 2476.58,352.473 2482.1,357.491C2487.63,362.509 2490.85,370.618 2491.78,381.818Z" style="fill:rgb(0,65,255);fill-rule:nonzero;"/>
                    <path d="M2632.24,435.709L2632.24,336.218L2615.66,336.218L2615.66,435.709C2615.66,449.673 2612.9,460.255 2607.38,467.455C2601.85,474.655 2593.8,478.255 2583.21,478.255C2572.04,478.255 2563.49,474.655 2557.56,467.455C2551.63,460.255 2548.66,449.673 2548.66,435.709L2548.66,336.218L2532.09,336.218L2532.09,435.709C2532.09,456.509 2536.6,471.673 2545.61,481.2C2554.62,490.727 2567.16,495.491 2583.21,495.491C2598.91,495.491 2611.01,490.509 2619.5,480.545C2627.99,470.582 2632.24,455.636 2632.24,435.709Z" style="fill:rgb(0,65,255);fill-rule:nonzero;"/>
                    <path d="M2779.32,381.818L2795.03,381.818C2794.79,373.236 2793.49,365.855 2791.1,359.673C2788.72,353.491 2785.46,348.364 2781.33,344.291C2777.2,340.218 2772.4,337.236 2766.94,335.345C2761.47,333.455 2755.54,332.509 2749.14,332.509C2743.44,332.509 2737.89,333.418 2732.48,335.236C2727.07,337.055 2722.24,339.818 2717.99,343.527C2713.75,347.236 2710.35,351.964 2707.79,357.709C2705.23,363.455 2703.95,370.255 2703.95,378.109C2703.95,385.236 2705.08,391.164 2707.35,395.891C2709.62,400.618 2712.64,404.473 2716.42,407.455C2720.2,410.436 2724.48,412.836 2729.25,414.655C2734.02,416.473 2738.87,418.073 2743.82,419.455C2748.76,420.836 2753.62,422.182 2758.39,423.491C2763.16,424.8 2767.43,426.509 2771.21,428.618C2774.99,430.727 2778.01,433.455 2780.28,436.8C2782.55,440.145 2783.69,444.509 2783.69,449.891C2783.69,455.564 2782.76,460.218 2780.89,463.855C2779.03,467.491 2776.59,470.364 2773.57,472.473C2770.54,474.582 2767.14,476.073 2763.36,476.945C2759.58,477.818 2755.83,478.255 2752.11,478.255C2747.45,478.255 2742.92,477.527 2738.5,476.073C2734.08,474.618 2730.21,472.364 2726.89,469.309C2723.58,466.255 2720.9,462.364 2718.87,457.636C2716.83,452.909 2715.81,447.273 2715.81,440.727L2700.11,440.727C2700.11,450.182 2701.48,458.364 2704.21,465.273C2706.94,472.182 2710.67,477.855 2715.38,482.291C2720.09,486.727 2725.55,490.036 2731.78,492.218C2738,494.4 2744.6,495.491 2751.58,495.491C2757.28,495.491 2763.01,494.655 2768.77,492.982C2774.53,491.309 2779.73,488.618 2784.38,484.909C2789.04,481.2 2792.85,476.4 2795.81,470.509C2798.78,464.618 2800.26,457.527 2800.26,449.236C2800.26,441.527 2799.13,435.127 2796.86,430.036C2794.59,424.945 2791.57,420.727 2787.79,417.382C2784.01,414.036 2779.73,411.382 2774.96,409.418C2770.19,407.455 2765.34,405.745 2760.39,404.291C2755.45,402.836 2750.59,401.491 2745.82,400.255C2741.05,399.018 2736.78,397.455 2733,395.564C2729.22,393.673 2726.2,391.236 2723.93,388.255C2721.66,385.273 2720.53,381.382 2720.53,376.582C2720.53,371.491 2721.31,367.236 2722.88,363.818C2724.45,360.4 2726.54,357.673 2729.16,355.636C2731.78,353.6 2734.77,352.145 2738.15,351.273C2741.52,350.4 2744.95,349.964 2748.44,349.964C2757.05,349.964 2764.12,352.473 2769.64,357.491C2775.16,362.509 2778.39,370.618 2779.32,381.818Z" style="fill:rgb(0,65,255);fill-rule:nonzero;"/>
                    <path d="M2871.8,428.291L2919.43,336.218L2900.59,336.218L2864.12,410.4L2826.78,336.218L2807.07,336.218L2855.22,428.291L2855.22,492L2871.8,492L2871.8,428.291Z" style="fill:rgb(0,65,255);fill-rule:nonzero;"/>
                    <path d="M3005.45,381.818L3021.15,381.818C3020.92,373.236 3019.61,365.855 3017.22,359.673C3014.84,353.491 3011.58,348.364 3007.45,344.291C3003.32,340.218 2998.53,337.236 2993.06,335.345C2987.59,333.455 2981.66,332.509 2975.26,332.509C2969.56,332.509 2964.01,333.418 2958.6,335.236C2953.19,337.055 2948.36,339.818 2944.12,343.527C2939.87,347.236 2936.47,351.964 2933.91,357.709C2931.35,363.455 2930.07,370.255 2930.07,378.109C2930.07,385.236 2931.21,391.164 2933.47,395.891C2935.74,400.618 2938.77,404.473 2942.55,407.455C2946.33,410.436 2950.6,412.836 2955.37,414.655C2960.14,416.473 2965,418.073 2969.94,419.455C2974.88,420.836 2979.74,422.182 2984.51,423.491C2989.28,424.8 2993.55,426.509 2997.33,428.618C3001.11,430.727 3004.14,433.455 3006.41,436.8C3008.68,440.145 3009.81,444.509 3009.81,449.891C3009.81,455.564 3008.88,460.218 3007.02,463.855C3005.16,467.491 3002.71,470.364 2999.69,472.473C2996.66,474.582 2993.26,476.073 2989.48,476.945C2985.7,477.818 2981.95,478.255 2978.23,478.255C2973.58,478.255 2969.04,477.527 2964.62,476.073C2960.2,474.618 2956.33,472.364 2953.02,469.309C2949.7,466.255 2947.03,462.364 2944.99,457.636C2942.95,452.909 2941.94,447.273 2941.94,440.727L2926.23,440.727C2926.23,450.182 2927.6,458.364 2930.33,465.273C2933.07,472.182 2936.79,477.855 2941.5,482.291C2946.21,486.727 2951.68,490.036 2957.9,492.218C2964.12,494.4 2970.73,495.491 2977.7,495.491C2983.4,495.491 2989.13,494.655 2994.89,492.982C3000.65,491.309 3005.85,488.618 3010.51,484.909C3015.16,481.2 3018.97,476.4 3021.93,470.509C3024.9,464.618 3026.38,457.527 3026.38,449.236C3026.38,441.527 3025.25,435.127 3022.98,430.036C3020.71,424.945 3017.69,420.727 3013.91,417.382C3010.13,414.036 3005.85,411.382 3001.09,409.418C2996.32,407.455 2991.46,405.745 2986.52,404.291C2981.57,402.836 2976.72,401.491 2971.95,400.255C2967.18,399.018 2962.9,397.455 2959.12,395.564C2955.34,393.673 2952.32,391.236 2950.05,388.255C2947.78,385.273 2946.65,381.382 2946.65,376.582C2946.65,371.491 2947.43,367.236 2949,363.818C2950.57,360.4 2952.67,357.673 2955.28,355.636C2957.9,353.6 2960.9,352.145 2964.27,351.273C2967.64,350.4 2971.08,349.964 2974.56,349.964C2983.17,349.964 2990.24,352.473 2995.76,357.491C3001.29,362.509 3004.52,370.618 3005.45,381.818Z" style="fill:rgb(0,65,255);fill-rule:nonzero;"/>
                    <path d="M3074.72,353.673L3074.72,492L3091.29,492L3091.29,353.673L3132.82,353.673L3132.82,336.218L3033.19,336.218L3033.19,353.673L3074.72,353.673Z" style="fill:rgb(0,65,255);fill-rule:nonzero;"/>
                    <path d="M3146.6,336.218L3146.6,492L3233.14,492L3233.14,474.545L3163.18,474.545L3163.18,420.655L3227.91,420.655L3227.91,403.2L3163.18,403.2L3163.18,353.673L3232.62,353.673L3232.62,336.218L3146.6,336.218Z" style="fill:rgb(0,65,255);fill-rule:nonzero;"/>
                    <path d="M3253.55,336.218L3253.55,492L3269.26,492L3269.26,362.4L3269.61,362.4L3308.51,492L3322.65,492L3361.56,362.4L3361.91,362.4L3361.91,492L3377.61,492L3377.61,336.218L3354.93,336.218L3315.49,467.127L3276.24,336.218L3253.55,336.218Z" style="fill:rgb(0,65,255);fill-rule:nonzero;"/>
                </g>
                <g transform="matrix(0.224914,0,0,0.224914,1807.87,428.557)">
                    <path d="M1922.64,492L1966.96,336.218L1949.68,336.218L1913.74,471.273L1913.39,471.273L1877.8,336.218L1860,336.218L1903.79,492L1922.64,492Z" style="fill:rgb(0,65,255);fill-rule:nonzero;"/>
                    <path d="M2030.81,424.8L1978.99,424.8C1979.23,420.436 1979.98,416.327 1981.26,412.473C1982.54,408.618 1984.29,405.236 1986.5,402.327C1988.71,399.418 1991.35,397.127 1994.43,395.455C1997.52,393.782 2000.98,392.945 2004.82,392.945C2008.54,392.945 2011.94,393.782 2015.02,395.455C2018.11,397.127 2020.78,399.382 2023.05,402.218C2025.32,405.055 2027.12,408.436 2028.46,412.364C2029.8,416.291 2030.58,420.436 2030.81,424.8ZM2045.12,456.218L2030.47,456.218C2029.18,463.636 2026.54,469.164 2022.53,472.8C2018.51,476.436 2013.37,478.255 2007.09,478.255C2002.2,478.255 1997.95,477.236 1994.35,475.2C1990.74,473.164 1987.78,470.436 1985.45,467.018C1983.12,463.6 1981.44,459.673 1980.39,455.236C1979.34,450.8 1978.88,446.109 1978.99,441.164L2046.52,441.164C2046.75,434.327 2046.26,427.127 2045.03,419.564C2043.81,412 2041.6,405.018 2038.4,398.618C2035.21,392.218 2030.96,386.945 2025.67,382.8C2020.37,378.655 2013.72,376.582 2005.69,376.582C1999.52,376.582 1993.85,378.036 1988.68,380.945C1983.5,383.855 1979.02,387.927 1975.24,393.164C1971.46,398.4 1968.53,404.582 1966.43,411.709C1964.34,418.836 1963.29,426.691 1963.29,435.273C1963.52,443.855 1964.54,451.782 1966.34,459.055C1968.15,466.327 1970.85,472.582 1974.46,477.818C1978.06,483.055 1982.51,487.127 1987.81,490.036C1993.1,492.945 1999.35,494.4 2006.56,494.4C2016.8,494.4 2025.29,491.2 2032.04,484.8C2038.78,478.4 2043.14,468.873 2045.12,456.218Z" style="fill:rgb(0,65,255);fill-rule:nonzero;"/>
                    <path d="M2061.35,379.2L2061.35,492L2076.18,492L2076.18,441.818C2076.18,434.545 2076.76,428.109 2077.92,422.509C2079.09,416.909 2080.95,412.145 2083.51,408.218C2086.07,404.291 2089.44,401.309 2093.63,399.273C2097.81,397.236 2102.87,396.218 2108.8,396.218L2108.8,376.582C2100.78,376.291 2094.15,378.327 2088.91,382.691C2083.68,387.055 2079.26,393.818 2075.66,402.982L2075.31,402.982L2075.31,379.2L2061.35,379.2Z" style="fill:rgb(0,65,255);fill-rule:nonzero;"/>
                    <path d="M2129.05,456.436L2114.21,456.436C2114.45,463.418 2115.61,469.345 2117.7,474.218C2119.8,479.091 2122.59,483.018 2126.08,486C2129.57,488.982 2133.58,491.127 2138.12,492.436C2142.65,493.745 2147.42,494.4 2152.43,494.4C2156.96,494.4 2161.53,493.855 2166.12,492.764C2170.72,491.673 2174.85,489.745 2178.51,486.982C2182.17,484.218 2185.14,480.582 2187.41,476.073C2189.68,471.564 2190.81,465.891 2190.81,459.055C2190.81,453.673 2189.97,449.164 2188.28,445.527C2186.59,441.891 2184.38,438.873 2181.65,436.473C2178.92,434.073 2175.78,432.145 2172.23,430.691C2168.68,429.236 2165.05,428 2161.32,426.982C2157.83,425.964 2154.34,424.982 2150.86,424.036C2147.37,423.091 2144.22,421.927 2141.43,420.545C2138.64,419.164 2136.34,417.418 2134.54,415.309C2132.74,413.2 2131.84,410.545 2131.84,407.345C2131.84,404.436 2132.42,402.073 2133.58,400.255C2134.74,398.436 2136.26,396.982 2138.12,395.891C2139.98,394.8 2142.04,394.036 2144.31,393.6C2146.58,393.164 2148.82,392.945 2151.03,392.945C2153.47,392.945 2155.89,393.273 2158.27,393.927C2160.65,394.582 2162.84,395.636 2164.81,397.091C2166.79,398.545 2168.42,400.473 2169.7,402.873C2170.98,405.273 2171.73,408.291 2171.97,411.927L2186.8,411.927C2186.45,405.091 2185.28,399.382 2183.31,394.8C2181.33,390.218 2178.68,386.582 2175.37,383.891C2172.05,381.2 2168.24,379.309 2163.94,378.218C2159.64,377.127 2154.93,376.582 2149.81,376.582C2145.85,376.582 2141.87,377.2 2137.86,378.436C2133.84,379.673 2130.24,381.564 2127.04,384.109C2123.84,386.655 2121.22,389.964 2119.19,394.036C2117.15,398.109 2116.13,402.982 2116.13,408.655C2116.13,415.927 2117.59,421.6 2120.49,425.673C2123.4,429.745 2127.04,432.909 2131.4,435.164C2135.76,437.418 2140.5,439.164 2145.62,440.4C2150.74,441.636 2155.48,443.018 2159.84,444.545C2164.2,446.073 2167.84,448.073 2170.74,450.545C2173.65,453.018 2175.11,456.655 2175.11,461.455C2175.11,464.945 2174.41,467.818 2173.01,470.073C2171.62,472.327 2169.84,474.036 2167.69,475.2C2165.54,476.364 2163.18,477.164 2160.62,477.6C2158.07,478.036 2155.62,478.255 2153.3,478.255C2150.27,478.255 2147.34,477.891 2144.49,477.164C2141.64,476.436 2139.08,475.236 2136.81,473.564C2134.54,471.891 2132.71,469.636 2131.31,466.8C2129.92,463.964 2129.16,460.509 2129.05,456.436Z" style="fill:rgb(0,65,255);fill-rule:nonzero;"/>
                    <path d="M2222.91,358.909L2222.91,336.218L2208.08,336.218L2208.08,358.909L2222.91,358.909ZM2208.08,379.2L2208.08,492L2222.91,492L2222.91,379.2L2208.08,379.2Z" style="fill:rgb(0,65,255);fill-rule:nonzero;"/>
                    <path d="M2256.76,435.709C2256.76,428.873 2257.49,422.8 2258.94,417.491C2260.4,412.182 2262.4,407.709 2264.96,404.073C2267.52,400.436 2270.52,397.673 2273.95,395.782C2277.38,393.891 2281.01,392.945 2284.85,392.945C2288.69,392.945 2292.33,393.891 2295.76,395.782C2299.19,397.673 2302.18,400.436 2304.74,404.073C2307.3,407.709 2309.31,412.182 2310.76,417.491C2312.22,422.8 2312.94,428.873 2312.94,435.709C2312.94,442.545 2312.22,448.618 2310.76,453.927C2309.31,459.236 2307.3,463.673 2304.74,467.236C2302.18,470.8 2299.19,473.527 2295.76,475.418C2292.33,477.309 2288.69,478.255 2284.85,478.255C2281.01,478.255 2277.38,477.309 2273.95,475.418C2270.52,473.527 2267.52,470.8 2264.96,467.236C2262.4,463.673 2260.4,459.236 2258.94,453.927C2257.49,448.618 2256.76,442.545 2256.76,435.709ZM2241.06,435.709C2241.06,444 2241.99,451.709 2243.85,458.836C2245.71,465.964 2248.5,472.182 2252.23,477.491C2255.95,482.8 2260.54,486.945 2266.01,489.927C2271.48,492.909 2277.76,494.4 2284.85,494.4C2292.07,494.4 2298.38,492.909 2303.78,489.927C2309.19,486.945 2313.76,482.8 2317.48,477.491C2321.2,472.182 2323.99,465.964 2325.86,458.836C2327.72,451.709 2328.65,444 2328.65,435.709C2328.65,427.418 2327.72,419.673 2325.86,412.473C2323.99,405.273 2321.2,399.018 2317.48,393.709C2313.76,388.4 2309.19,384.218 2303.78,381.164C2298.38,378.109 2292.07,376.582 2284.85,376.582C2277.76,376.582 2271.48,378.109 2266.01,381.164C2260.54,384.218 2255.95,388.4 2252.23,393.709C2248.5,399.018 2245.71,405.273 2243.85,412.473C2241.99,419.673 2241.06,427.418 2241.06,435.709Z" style="fill:rgb(0,65,255);fill-rule:nonzero;"/>
                    <path d="M2346.1,379.2L2346.1,492L2360.93,492L2360.93,428.291C2360.93,423.2 2361.48,418.509 2362.58,414.218C2363.69,409.927 2365.35,406.182 2367.56,402.982C2369.77,399.782 2372.53,397.309 2375.84,395.564C2379.16,393.818 2383.08,392.945 2387.62,392.945C2393.32,392.945 2397.8,394.982 2401.06,399.055C2404.31,403.127 2405.94,408.655 2405.94,415.636L2405.94,492L2420.77,492L2420.77,417.818C2420.77,411.709 2420.28,406.145 2419.29,401.127C2418.3,396.109 2416.58,391.782 2414.14,388.145C2411.7,384.509 2408.5,381.673 2404.55,379.636C2400.59,377.6 2395.65,376.582 2389.72,376.582C2376.34,376.582 2366.57,383.418 2360.4,397.091L2360.05,397.091L2360.05,379.2L2346.1,379.2Z" style="fill:rgb(0,65,255);fill-rule:nonzero;"/>
                    <path d="M2488.12,392.073L2502.95,392.073C2502.83,387.418 2503.21,382.8 2504.09,378.218C2504.96,373.636 2506.38,369.527 2508.36,365.891C2510.34,362.255 2512.87,359.309 2515.95,357.055C2519.03,354.8 2522.72,353.673 2527.03,353.673C2530.29,353.673 2533.37,354.327 2536.28,355.636C2539.18,356.945 2541.71,358.836 2543.87,361.309C2546.02,363.782 2547.73,366.727 2549.01,370.145C2550.29,373.564 2550.93,377.382 2550.93,381.6C2550.93,386.982 2550.26,391.709 2548.93,395.782C2547.59,399.855 2545.61,403.636 2542.99,407.127C2540.38,410.618 2537.09,414.073 2533.14,417.491C2529.18,420.909 2524.59,424.655 2519.35,428.727C2515.05,431.927 2510.92,435.345 2506.96,438.982C2503.01,442.618 2499.46,446.836 2496.32,451.636C2493.18,456.436 2490.59,462.073 2488.56,468.545C2486.52,475.018 2485.21,482.836 2484.63,492L2565.41,492L2565.41,475.636L2501.9,475.636C2502.6,470.836 2504.09,466.582 2506.35,462.873C2508.62,459.164 2511.36,455.709 2514.55,452.509C2517.75,449.309 2521.27,446.291 2525.11,443.455C2528.95,440.618 2532.79,437.745 2536.62,434.836C2540.46,431.782 2544.19,428.582 2547.79,425.236C2551.4,421.891 2554.6,418.145 2557.39,414C2560.18,409.855 2562.42,405.164 2564.11,399.927C2565.79,394.691 2566.64,388.655 2566.64,381.818C2566.64,374.545 2565.62,368.145 2563.58,362.618C2561.55,357.091 2558.78,352.473 2555.29,348.764C2551.8,345.055 2547.7,342.218 2542.99,340.255C2538.28,338.291 2533.25,337.309 2527.9,337.309C2521.39,337.309 2515.57,338.691 2510.45,341.455C2505.34,344.218 2501.06,348.036 2497.63,352.909C2494.2,357.782 2491.67,363.564 2490.04,370.255C2488.41,376.945 2487.77,384.218 2488.12,392.073Z" style="fill:rgb(0,65,255);fill-rule:nonzero;"/>
                    <rect x="2591.93" y="467.782" width="19.367" height="24.218" style="fill:rgb(0,65,255);fill-rule:nonzero;"/>
                    <path d="M2648.99,415.855C2648.99,412.073 2649.02,407.891 2649.08,403.309C2649.13,398.727 2649.43,394.145 2649.95,389.564C2650.47,384.982 2651.23,380.509 2652.22,376.145C2653.2,371.782 2654.66,367.964 2656.58,364.691C2658.5,361.418 2660.91,358.764 2663.82,356.727C2666.73,354.691 2670.28,353.673 2674.46,353.673C2678.65,353.673 2682.2,354.691 2685.11,356.727C2688.01,358.764 2690.43,361.418 2692.35,364.691C2694.27,367.964 2695.72,371.782 2696.71,376.145C2697.7,380.509 2698.45,384.982 2698.98,389.564C2699.5,394.145 2699.79,398.727 2699.85,403.309C2699.91,407.891 2699.94,412.073 2699.94,415.855C2699.94,421.673 2699.79,428.182 2699.5,435.382C2699.21,442.582 2698.28,449.345 2696.71,455.673C2695.14,462 2692.61,467.345 2689.12,471.709C2685.63,476.073 2680.74,478.255 2674.46,478.255C2668.18,478.255 2663.3,476.073 2659.81,471.709C2656.32,467.345 2653.79,462 2652.22,455.673C2650.65,449.345 2649.72,442.582 2649.43,435.382C2649.13,428.182 2648.99,421.673 2648.99,415.855ZM2633.29,416.073C2633.29,421.745 2633.4,427.636 2633.64,433.745C2633.87,439.855 2634.45,445.818 2635.38,451.636C2636.31,457.455 2637.65,462.945 2639.39,468.109C2641.14,473.273 2643.52,477.818 2646.55,481.745C2649.57,485.673 2653.38,488.764 2657.97,491.018C2662.57,493.273 2668.07,494.4 2674.46,494.4C2680.98,494.4 2686.5,493.273 2691.04,491.018C2695.57,488.764 2699.36,485.673 2702.38,481.745C2705.4,477.818 2707.79,473.273 2709.53,468.109C2711.28,462.945 2712.62,457.455 2713.55,451.636C2714.48,445.818 2715.06,439.855 2715.29,433.745C2715.52,427.636 2715.64,421.745 2715.64,416.073C2715.64,410.4 2715.52,404.509 2715.29,398.4C2715.06,392.291 2714.48,386.327 2713.55,380.509C2712.62,374.691 2711.28,369.164 2709.53,363.927C2707.79,358.691 2705.4,354.109 2702.38,350.182C2699.36,346.255 2695.55,343.127 2690.95,340.8C2686.36,338.473 2680.86,337.309 2674.46,337.309C2668.07,337.309 2662.57,338.473 2657.97,340.8C2653.38,343.127 2649.57,346.255 2646.55,350.182C2643.52,354.109 2641.14,358.691 2639.39,363.927C2637.65,369.164 2636.31,374.691 2635.38,380.509C2634.45,386.327 2633.87,392.291 2633.64,398.4C2633.4,404.509 2633.29,410.4 2633.29,416.073Z" style="fill:rgb(0,65,255);fill-rule:nonzero;"/>
                    <path d="M2764.84,353.673L2764.84,492L2781.42,492L2781.42,353.673L2822.94,353.673L2822.94,336.218L2723.32,336.218L2723.32,353.673L2764.84,353.673Z" style="fill:rgb(0,65,255);fill-rule:nonzero;"/>
                </g>
            </g>
        </g>
    </g>
</svg>
