<?xml version="1.0" encoding="UTF-8" standalone="no"?>
<!DOCTYPE svg PUBLIC "-//W3C//DTD SVG 1.1//EN" "http://www.w3.org/Graphics/SVG/1.1/DTD/svg11.dtd">
<svg width="100%" height="100%" viewBox="0 0 20171 14854" version="1.1" xmlns="http://www.w3.org/2000/svg" xmlns:xlink="http://www.w3.org/1999/xlink" xml:space="preserve" xmlns:serif="http://www.serif.com/" style="fill-rule:evenodd;clip-rule:evenodd;stroke-linejoin:round;stroke-miterlimit:1.5;">
    <g transform="matrix(1,0,0,1,-4017,-2905)">
        <g id="white-on-blue" serif:id="white on blue" transform="matrix(9.76562,0,0,9.76562,0,0)">
            <g id="Layer15">
                <g transform="matrix(1.01531,0,0,1.04453,0,-30.4928)">
                    <g id="Layer13">
                        <rect x="0" y="29.193" width="2718.39" height="1998.75" style="fill:rgb(2,45,253);"/>
                    </g>
                </g>
                <g id="Layer26">
                </g>
                <g id="Layer25">
                    <g id="Layer23">
                        <g transform="matrix(0.70457,0,0,0.367797,454.054,916.61)">
                            <path d="M1337.21,1403.8L1343.68,1403.8C1343.48,1400.65 1343,1397.85 1342.23,1395.4C1341.46,1392.96 1340.49,1390.91 1339.31,1389.26C1338.13,1387.6 1336.8,1386.34 1335.31,1385.48C1333.82,1384.61 1332.24,1384.18 1330.56,1384.18C1328.24,1384.18 1326.14,1384.92 1324.28,1386.39C1322.42,1387.87 1320.86,1389.9 1319.58,1392.5C1318.3,1395.1 1317.32,1398.14 1316.64,1401.63C1315.96,1405.12 1315.62,1408.89 1315.62,1412.97C1315.62,1416.94 1315.96,1420.64 1316.64,1424.08C1317.32,1427.52 1318.3,1430.51 1319.58,1433.05C1320.86,1435.6 1322.42,1437.6 1324.28,1439.05C1326.14,1440.5 1328.24,1441.22 1330.56,1441.22C1332.44,1441.22 1334.15,1440.71 1335.71,1439.69C1337.28,1438.68 1338.64,1437.2 1339.8,1435.27C1340.97,1433.33 1341.9,1430.99 1342.61,1428.24C1343.32,1425.49 1343.76,1422.41 1343.93,1419L1337.46,1419C1337.21,1422.66 1336.5,1425.62 1335.35,1427.86C1334.2,1430.1 1332.61,1431.22 1330.56,1431.22C1329.06,1431.22 1327.78,1430.7 1326.73,1429.65C1325.68,1428.61 1324.83,1427.22 1324.18,1425.49C1323.52,1423.76 1323.05,1421.81 1322.75,1419.65C1322.45,1417.49 1322.3,1415.26 1322.3,1412.97C1322.3,1410.58 1322.45,1408.26 1322.75,1406.02C1323.05,1403.78 1323.52,1401.78 1324.18,1400.02C1324.83,1398.27 1325.68,1396.87 1326.73,1395.82C1327.78,1394.78 1329.06,1394.26 1330.56,1394.26C1331.39,1394.26 1332.17,1394.5 1332.93,1394.98C1333.68,1395.47 1334.35,1396.14 1334.95,1397.01C1335.55,1397.87 1336.04,1398.88 1336.44,1400.02C1336.84,1401.17 1337.09,1402.43 1337.21,1403.8Z" style="fill:white;fill-rule:nonzero;"/>
                            <path d="M1353.85,1412.97C1353.85,1410.58 1354,1408.26 1354.3,1406.02C1354.6,1403.78 1355.08,1401.78 1355.73,1400.02C1356.38,1398.27 1357.23,1396.87 1358.28,1395.82C1359.33,1394.78 1360.61,1394.26 1362.11,1394.26C1363.62,1394.26 1364.9,1394.78 1365.95,1395.82C1367,1396.87 1367.85,1398.27 1368.5,1400.02C1369.15,1401.78 1369.63,1403.78 1369.93,1406.02C1370.23,1408.26 1370.38,1410.58 1370.38,1412.97C1370.38,1415.26 1370.23,1417.49 1369.93,1419.65C1369.63,1421.81 1369.15,1423.76 1368.5,1425.49C1367.85,1427.22 1367,1428.61 1365.95,1429.65C1364.9,1430.7 1363.62,1431.22 1362.11,1431.22C1360.61,1431.22 1359.33,1430.7 1358.28,1429.65C1357.23,1428.61 1356.38,1427.22 1355.73,1425.49C1355.08,1423.76 1354.6,1421.81 1354.3,1419.65C1354,1417.49 1353.85,1415.26 1353.85,1412.97ZM1347.17,1412.97C1347.17,1416.94 1347.51,1420.64 1348.19,1424.08C1348.87,1427.52 1349.85,1430.51 1351.13,1433.05C1352.41,1435.6 1353.98,1437.6 1355.83,1439.05C1357.69,1440.5 1359.79,1441.22 1362.11,1441.22C1364.47,1441.22 1366.57,1440.5 1368.42,1439.05C1370.26,1437.6 1371.82,1435.6 1373.1,1433.05C1374.38,1430.51 1375.36,1427.52 1376.04,1424.08C1376.72,1420.64 1377.06,1416.94 1377.06,1412.97C1377.06,1408.89 1376.72,1405.12 1376.04,1401.63C1375.36,1398.14 1374.38,1395.1 1373.1,1392.5C1371.82,1389.9 1370.26,1387.87 1368.42,1386.39C1366.57,1384.92 1364.47,1384.18 1362.11,1384.18C1359.79,1384.18 1357.69,1384.92 1355.83,1386.39C1353.98,1387.87 1352.41,1389.9 1351.13,1392.5C1349.85,1395.1 1348.87,1398.14 1348.19,1401.63C1347.51,1405.12 1347.17,1408.89 1347.17,1412.97Z" style="fill:white;fill-rule:nonzero;"/>
                            <path d="M1381.62,1385.48L1381.62,1440L1387.88,1440L1387.88,1403.5L1387.96,1403.5L1400.61,1440L1407.29,1440L1407.29,1385.48L1401.03,1385.48L1401.03,1422.06L1400.95,1422.06L1388.26,1385.48L1381.62,1385.48Z" style="fill:white;fill-rule:nonzero;"/>
                            <path d="M1413.17,1385.48L1413.17,1440L1419.43,1440L1419.43,1403.5L1419.51,1403.5L1432.16,1440L1438.84,1440L1438.84,1385.48L1432.58,1385.48L1432.58,1422.06L1432.5,1422.06L1419.81,1385.48L1413.17,1385.48Z" style="fill:white;fill-rule:nonzero;"/>
                            <path d="M1444.72,1385.48L1444.72,1440L1467.8,1440L1467.8,1429.92L1451.4,1429.92L1451.4,1416.56L1466.13,1416.56L1466.13,1407.24L1451.4,1407.24L1451.4,1395.56L1467.45,1395.56L1467.45,1385.48L1444.72,1385.48Z" style="fill:white;fill-rule:nonzero;"/>
                            <path d="M1492.58,1403.8L1499.05,1403.8C1498.85,1400.65 1498.37,1397.85 1497.6,1395.4C1496.84,1392.96 1495.86,1390.91 1494.68,1389.26C1493.51,1387.6 1492.17,1386.34 1490.68,1385.48C1489.19,1384.61 1487.61,1384.18 1485.93,1384.18C1483.61,1384.18 1481.51,1384.92 1479.65,1386.39C1477.8,1387.87 1476.23,1389.9 1474.95,1392.5C1473.67,1395.1 1472.69,1398.14 1472.01,1401.63C1471.33,1405.12 1470.99,1408.89 1470.99,1412.97C1470.99,1416.94 1471.33,1420.64 1472.01,1424.08C1472.69,1427.52 1473.67,1430.51 1474.95,1433.05C1476.23,1435.6 1477.8,1437.6 1479.65,1439.05C1481.51,1440.5 1483.61,1441.22 1485.93,1441.22C1487.81,1441.22 1489.53,1440.71 1491.09,1439.69C1492.65,1438.68 1494.01,1437.2 1495.17,1435.27C1496.34,1433.33 1497.28,1430.99 1497.98,1428.24C1498.69,1425.49 1499.13,1422.41 1499.3,1419L1492.83,1419C1492.58,1422.66 1491.87,1425.62 1490.73,1427.86C1489.58,1430.1 1487.98,1431.22 1485.93,1431.22C1484.43,1431.22 1483.15,1430.7 1482.1,1429.65C1481.05,1428.61 1480.2,1427.22 1479.55,1425.49C1478.89,1423.76 1478.42,1421.81 1478.12,1419.65C1477.82,1417.49 1477.67,1415.26 1477.67,1412.97C1477.67,1410.58 1477.82,1408.26 1478.12,1406.02C1478.42,1403.78 1478.89,1401.78 1479.55,1400.02C1480.2,1398.27 1481.05,1396.87 1482.1,1395.82C1483.15,1394.78 1484.43,1394.26 1485.93,1394.26C1486.76,1394.26 1487.55,1394.5 1488.3,1394.98C1489.05,1395.47 1489.72,1396.14 1490.32,1397.01C1490.92,1397.87 1491.41,1398.88 1491.81,1400.02C1492.21,1401.17 1492.46,1402.43 1492.58,1403.8Z" style="fill:white;fill-rule:nonzero;"/>
                            <path d="M1510.59,1395.56L1510.59,1440L1517.27,1440L1517.27,1395.56L1526.38,1395.56L1526.38,1385.48L1501.48,1385.48L1501.48,1395.56L1510.59,1395.56Z" style="fill:white;fill-rule:nonzero;"/>
                            <rect x="1529.88" y="1385.48" width="6.685" height="54.524" style="fill:white;fill-rule:nonzero;"/>
                            <path d="M1547.8,1412.97C1547.8,1410.58 1547.95,1408.26 1548.25,1406.02C1548.55,1403.78 1549.02,1401.78 1549.68,1400.02C1550.33,1398.27 1551.18,1396.87 1552.23,1395.82C1553.28,1394.78 1554.56,1394.26 1556.06,1394.26C1557.57,1394.26 1558.84,1394.78 1559.89,1395.82C1560.94,1396.87 1561.8,1398.27 1562.45,1400.02C1563.1,1401.78 1563.58,1403.78 1563.88,1406.02C1564.17,1408.26 1564.32,1410.58 1564.32,1412.97C1564.32,1415.26 1564.17,1417.49 1563.88,1419.65C1563.58,1421.81 1563.1,1423.76 1562.45,1425.49C1561.8,1427.22 1560.94,1428.61 1559.89,1429.65C1558.84,1430.7 1557.57,1431.22 1556.06,1431.22C1554.56,1431.22 1553.28,1430.7 1552.23,1429.65C1551.18,1428.61 1550.33,1427.22 1549.68,1425.49C1549.02,1423.76 1548.55,1421.81 1548.25,1419.65C1547.95,1417.49 1547.8,1415.26 1547.8,1412.97ZM1541.12,1412.97C1541.12,1416.94 1541.46,1420.64 1542.14,1424.08C1542.82,1427.52 1543.8,1430.51 1545.08,1433.05C1546.35,1435.6 1547.92,1437.6 1549.78,1439.05C1551.64,1440.5 1553.74,1441.22 1556.06,1441.22C1558.42,1441.22 1560.52,1440.5 1562.36,1439.05C1564.21,1437.6 1565.77,1435.6 1567.05,1433.05C1568.33,1430.51 1569.3,1427.52 1569.99,1424.08C1570.67,1420.64 1571.01,1416.94 1571.01,1412.97C1571.01,1408.89 1570.67,1405.12 1569.99,1401.63C1569.3,1398.14 1568.33,1395.1 1567.05,1392.5C1565.77,1389.9 1564.21,1387.87 1562.36,1386.39C1560.52,1384.92 1558.42,1384.18 1556.06,1384.18C1553.74,1384.18 1551.64,1384.92 1549.78,1386.39C1547.92,1387.87 1546.35,1389.9 1545.08,1392.5C1543.8,1395.1 1542.82,1398.14 1542.14,1401.63C1541.46,1405.12 1541.12,1408.89 1541.12,1412.97Z" style="fill:white;fill-rule:nonzero;"/>
                            <path d="M1575.56,1385.48L1575.56,1440L1581.82,1440L1581.82,1403.5L1581.91,1403.5L1594.55,1440L1601.24,1440L1601.24,1385.48L1594.98,1385.48L1594.98,1422.06L1594.89,1422.06L1582.21,1385.48L1575.56,1385.48Z" style="fill:white;fill-rule:nonzero;"/>
                        </g>
                        <g transform="matrix(0.70457,0,0,0.367797,411.564,886.372)">
                            <path d="M1321.49,1421.9L1315.02,1421.9C1314.99,1425.26 1315.33,1428.16 1316.04,1430.61C1316.75,1433.05 1317.71,1435.06 1318.92,1436.64C1320.12,1438.22 1321.52,1439.38 1323.09,1440.12C1324.67,1440.85 1326.29,1441.22 1327.97,1441.22C1330.04,1441.22 1331.86,1440.79 1333.44,1439.92C1335.01,1439.06 1336.33,1437.85 1337.4,1436.3C1338.46,1434.74 1339.26,1432.9 1339.8,1430.76C1340.34,1428.62 1340.61,1426.31 1340.61,1423.81C1340.61,1420.76 1340.25,1418.25 1339.53,1416.29C1338.8,1414.33 1337.94,1412.76 1336.95,1411.59C1335.96,1410.42 1334.96,1409.57 1333.95,1409.04C1332.94,1408.5 1332.15,1408.13 1331.59,1407.93C1329.68,1407.06 1328.14,1406.35 1326.96,1405.79C1325.79,1405.23 1324.87,1404.67 1324.2,1404.11C1323.53,1403.55 1323.08,1402.94 1322.86,1402.28C1322.63,1401.62 1322.52,1400.75 1322.52,1399.68C1322.52,1398.51 1322.66,1397.54 1322.94,1396.78C1323.23,1396.02 1323.59,1395.38 1324.03,1394.87C1324.47,1394.36 1324.96,1394 1325.5,1393.8C1326.04,1393.6 1326.58,1393.5 1327.11,1393.5C1327.94,1393.5 1328.7,1393.62 1329.39,1393.88C1330.09,1394.13 1330.7,1394.56 1331.25,1395.17C1331.78,1395.79 1332.22,1396.62 1332.54,1397.69C1332.87,1398.76 1333.06,1400.11 1333.12,1401.74L1339.59,1401.74C1339.59,1398.59 1339.26,1395.9 1338.59,1393.68C1337.92,1391.47 1337.02,1389.65 1335.89,1388.23C1334.75,1386.8 1333.45,1385.77 1331.99,1385.13C1330.53,1384.5 1329,1384.18 1327.41,1384.18C1326.05,1384.18 1324.69,1384.51 1323.33,1385.17C1321.96,1385.83 1320.74,1386.85 1319.66,1388.23C1318.58,1389.6 1317.71,1391.32 1317.04,1393.38C1316.38,1395.44 1316.04,1397.87 1316.04,1400.67C1316.04,1403.17 1316.31,1405.29 1316.83,1407.05C1317.36,1408.81 1318.05,1410.27 1318.9,1411.44C1319.75,1412.61 1320.71,1413.57 1321.79,1414.3C1322.87,1415.04 1323.98,1415.66 1325.11,1416.17C1326.22,1416.74 1327.31,1417.24 1328.39,1417.7C1329.47,1418.16 1330.44,1418.69 1331.29,1419.31C1332.14,1419.92 1332.83,1420.68 1333.35,1421.6C1333.88,1422.51 1334.14,1423.71 1334.14,1425.18C1334.14,1426.56 1333.94,1427.69 1333.54,1428.58C1333.15,1429.48 1332.65,1430.17 1332.05,1430.68C1331.46,1431.19 1330.82,1431.54 1330.14,1431.71C1329.46,1431.89 1328.82,1431.98 1328.22,1431.98C1327.34,1431.98 1326.49,1431.79 1325.67,1431.41C1324.84,1431.03 1324.13,1430.44 1323.52,1429.65C1322.91,1428.86 1322.42,1427.83 1322.05,1426.56C1321.68,1425.29 1321.49,1423.74 1321.49,1421.9Z" style="fill:white;fill-rule:nonzero;"/>
                            <path d="M1344.57,1385.48L1344.57,1440L1351.26,1440L1351.26,1416.48L1363.56,1416.48L1363.56,1440L1370.25,1440L1370.25,1385.48L1363.56,1385.48L1363.56,1406.4L1351.26,1406.4L1351.26,1385.48L1344.57,1385.48Z" style="fill:white;fill-rule:nonzero;"/>
                            <path d="M1381.49,1412.97C1381.49,1410.58 1381.64,1408.26 1381.93,1406.02C1382.23,1403.78 1382.71,1401.78 1383.36,1400.02C1384.01,1398.27 1384.87,1396.87 1385.92,1395.82C1386.97,1394.78 1388.24,1394.26 1389.75,1394.26C1391.25,1394.26 1392.53,1394.78 1393.58,1395.82C1394.63,1396.87 1395.48,1398.27 1396.13,1400.02C1396.79,1401.78 1397.26,1403.78 1397.56,1406.02C1397.86,1408.26 1398.01,1410.58 1398.01,1412.97C1398.01,1415.26 1397.86,1417.49 1397.56,1419.65C1397.26,1421.81 1396.79,1423.76 1396.13,1425.49C1395.48,1427.22 1394.63,1428.61 1393.58,1429.65C1392.53,1430.7 1391.25,1431.22 1389.75,1431.22C1388.24,1431.22 1386.97,1430.7 1385.92,1429.65C1384.87,1428.61 1384.01,1427.22 1383.36,1425.49C1382.71,1423.76 1382.23,1421.81 1381.93,1419.65C1381.64,1417.49 1381.49,1415.26 1381.49,1412.97ZM1374.8,1412.97C1374.8,1416.94 1375.14,1420.64 1375.83,1424.08C1376.51,1427.52 1377.49,1430.51 1378.76,1433.05C1380.04,1435.6 1381.61,1437.6 1383.47,1439.05C1385.33,1440.5 1387.42,1441.22 1389.75,1441.22C1392.1,1441.22 1394.2,1440.5 1396.05,1439.05C1397.89,1437.6 1399.46,1435.6 1400.73,1433.05C1402.01,1430.51 1402.99,1427.52 1403.67,1424.08C1404.35,1420.64 1404.69,1416.94 1404.69,1412.97C1404.69,1408.89 1404.35,1405.12 1403.67,1401.63C1402.99,1398.14 1402.01,1395.1 1400.73,1392.5C1399.46,1389.9 1397.89,1387.87 1396.05,1386.39C1394.2,1384.92 1392.1,1384.18 1389.75,1384.18C1387.42,1384.18 1385.33,1384.92 1383.47,1386.39C1381.61,1387.87 1380.04,1389.9 1378.76,1392.5C1377.49,1395.1 1376.51,1398.14 1375.83,1401.63C1375.14,1405.12 1374.8,1408.89 1374.8,1412.97Z" style="fill:white;fill-rule:nonzero;"/>
                            <path d="M1415.98,1395.56L1415.98,1440L1422.66,1440L1422.66,1395.56L1431.77,1395.56L1431.77,1385.48L1406.87,1385.48L1406.87,1395.56L1415.98,1395.56Z" style="fill:white;fill-rule:nonzero;"/>
                            <path d="M1441.95,1411.13L1441.95,1394.79L1447.14,1394.79C1447.91,1394.79 1448.65,1394.89 1449.36,1395.1C1450.07,1395.3 1450.69,1395.7 1451.23,1396.28C1451.77,1396.87 1452.2,1397.69 1452.53,1398.76C1452.86,1399.83 1453.02,1401.23 1453.02,1402.96C1453.02,1404.69 1452.86,1406.1 1452.53,1407.16C1452.2,1408.23 1451.77,1409.06 1451.23,1409.64C1450.69,1410.23 1450.07,1410.62 1449.36,1410.83C1448.65,1411.03 1447.91,1411.13 1447.14,1411.13L1441.95,1411.13ZM1435.27,1385.48L1435.27,1440L1441.95,1440L1441.95,1420.45L1448.98,1420.45C1450.88,1420.45 1452.5,1419.95 1453.83,1418.96C1455.16,1417.97 1456.25,1416.66 1457.09,1415.03C1457.92,1413.4 1458.54,1411.53 1458.92,1409.42C1459.3,1407.3 1459.49,1405.15 1459.49,1402.96C1459.49,1400.72 1459.3,1398.56 1458.92,1396.47C1458.54,1394.38 1457.92,1392.53 1457.09,1390.9C1456.25,1389.27 1455.16,1387.96 1453.83,1386.96C1452.5,1385.97 1450.88,1385.48 1448.98,1385.48L1435.27,1385.48Z" style="fill:white;fill-rule:nonzero;"/>
                            <path d="M1489.47,1419.38L1489.47,1385.48L1482.78,1385.48L1482.78,1419.38C1482.78,1423.45 1482.33,1426.44 1481.42,1428.36C1480.51,1430.26 1478.87,1431.22 1476.48,1431.22C1475.12,1431.22 1474.03,1430.88 1473.23,1430.19C1472.42,1429.5 1471.78,1428.61 1471.33,1427.52C1470.88,1426.42 1470.58,1425.16 1470.44,1423.74C1470.29,1422.31 1470.22,1420.86 1470.22,1419.38L1470.22,1385.48L1463.54,1385.48L1463.54,1419.38C1463.54,1426.82 1464.67,1432.31 1466.92,1435.88C1469.18,1439.44 1472.37,1441.22 1476.48,1441.22C1480.54,1441.22 1483.72,1439.43 1486.02,1435.84C1488.32,1432.25 1489.47,1426.76 1489.47,1419.38Z" style="fill:white;fill-rule:nonzero;"/>
                            <path d="M1501.94,1395.56L1501.94,1440L1508.63,1440L1508.63,1395.56L1517.74,1395.56L1517.74,1385.48L1492.83,1385.48L1492.83,1395.56L1501.94,1395.56Z" style="fill:white;fill-rule:nonzero;"/>
                        </g>
                        <g transform="matrix(0.70457,0,0,0.367797,372.534,994.372)">
                            <path d="M1323.66,1395.56L1323.66,1440L1330.35,1440L1330.35,1395.56L1339.46,1395.56L1339.46,1385.48L1314.55,1385.48L1314.55,1395.56L1323.66,1395.56Z" style="fill:white;fill-rule:nonzero;"/>
                            <rect x="1342.95" y="1385.48" width="6.685" height="54.524" style="fill:white;fill-rule:nonzero;"/>
                            <path d="M1355.52,1385.48L1355.52,1440L1361.77,1440L1361.77,1401.74L1361.86,1401.74L1369.31,1440L1374.46,1440L1381.91,1401.36L1382,1401.36L1382,1440L1388.26,1440L1388.26,1385.48L1378.85,1385.48L1372.12,1422.97L1372.04,1422.97L1364.92,1385.48L1355.52,1385.48Z" style="fill:white;fill-rule:nonzero;"/>
                            <rect x="1394.13" y="1385.48" width="6.685" height="54.524" style="fill:white;fill-rule:nonzero;"/>
                            <path d="M1406.69,1385.48L1406.69,1440L1412.95,1440L1412.95,1403.5L1413.04,1403.5L1425.68,1440L1432.37,1440L1432.37,1385.48L1426.11,1385.48L1426.11,1422.06L1426.03,1422.06L1413.34,1385.48L1406.69,1385.48Z" style="fill:white;fill-rule:nonzero;"/>
                            <path d="M1460.22,1433.82L1460.9,1440L1465.16,1440L1465.16,1410.52L1452.38,1410.52L1452.38,1419.46L1459.11,1419.46C1458.91,1423.28 1458.21,1426.19 1457,1428.2C1455.8,1430.21 1454.09,1431.22 1451.87,1431.22C1450.37,1431.22 1449.09,1430.7 1448.04,1429.65C1446.99,1428.61 1446.14,1427.22 1445.48,1425.49C1444.83,1423.76 1444.36,1421.81 1444.06,1419.65C1443.76,1417.49 1443.61,1415.26 1443.61,1412.97C1443.61,1410.58 1443.76,1408.26 1444.06,1406.02C1444.36,1403.78 1444.83,1401.78 1445.48,1400.02C1446.14,1398.27 1446.99,1396.87 1448.04,1395.82C1449.09,1394.78 1450.37,1394.26 1451.87,1394.26C1453.49,1394.26 1454.87,1395.02 1456,1396.55C1457.14,1398.08 1457.9,1400.37 1458.3,1403.42L1464.69,1403.42C1464.52,1400.32 1464.05,1397.57 1463.28,1395.17C1462.52,1392.78 1461.54,1390.77 1460.37,1389.14C1459.19,1387.51 1457.87,1386.28 1456.41,1385.44C1454.94,1384.6 1453.43,1384.18 1451.87,1384.18C1449.54,1384.18 1447.45,1384.92 1445.59,1386.39C1443.73,1387.87 1442.16,1389.9 1440.89,1392.5C1439.61,1395.1 1438.63,1398.14 1437.95,1401.63C1437.27,1405.12 1436.93,1408.89 1436.93,1412.97C1436.93,1416.94 1437.27,1420.64 1437.95,1424.08C1438.63,1427.52 1439.61,1430.51 1440.89,1433.05C1442.16,1435.6 1443.73,1437.6 1445.59,1439.05C1447.45,1440.5 1449.54,1441.22 1451.87,1441.22C1453.35,1441.22 1454.81,1440.67 1456.26,1439.58C1457.7,1438.49 1459.03,1436.56 1460.22,1433.82Z" style="fill:white;fill-rule:nonzero;"/>
                        </g>
                        <g transform="matrix(0.70457,0,0,0.367797,497.934,946.372)">
                            <path d="M1323.62,1411.13L1323.62,1394.79L1328.82,1394.79C1329.58,1394.79 1330.32,1394.89 1331.03,1395.1C1331.74,1395.3 1332.37,1395.7 1332.9,1396.28C1333.44,1396.87 1333.88,1397.69 1334.2,1398.76C1334.53,1399.83 1334.69,1401.23 1334.69,1402.96C1334.69,1404.69 1334.53,1406.1 1334.2,1407.16C1333.88,1408.23 1333.44,1409.06 1332.9,1409.64C1332.37,1410.23 1331.74,1410.62 1331.03,1410.83C1330.32,1411.03 1329.58,1411.13 1328.82,1411.13L1323.62,1411.13ZM1316.94,1385.48L1316.94,1440L1323.62,1440L1323.62,1420.45L1330.65,1420.45C1332.55,1420.45 1334.17,1419.95 1335.5,1418.96C1336.84,1417.97 1337.92,1416.66 1338.76,1415.03C1339.6,1413.4 1340.21,1411.53 1340.59,1409.42C1340.97,1407.3 1341.16,1405.15 1341.16,1402.96C1341.16,1400.72 1340.97,1398.56 1340.59,1396.47C1340.21,1394.38 1339.6,1392.53 1338.76,1390.9C1337.92,1389.27 1336.84,1387.96 1335.5,1386.96C1334.17,1385.97 1332.55,1385.48 1330.65,1385.48L1316.94,1385.48Z" style="fill:white;fill-rule:nonzero;"/>
                            <path d="M1349.85,1418.92L1353.81,1398.92L1353.9,1398.92L1357.73,1418.92L1349.85,1418.92ZM1350.49,1385.48L1338.99,1440L1345.72,1440L1348.11,1427.86L1359.48,1427.86L1361.77,1440L1368.71,1440L1357.35,1385.48L1350.49,1385.48Z" style="fill:white;fill-rule:nonzero;"/>
                            <path d="M1374.16,1395.56L1374.16,1440L1380.85,1440L1380.85,1395.56L1389.96,1395.56L1389.96,1385.48L1365.05,1385.48L1365.05,1395.56L1374.16,1395.56Z" style="fill:white;fill-rule:nonzero;"/>
                            <path d="M1400.18,1395.56L1400.18,1440L1406.87,1440L1406.87,1395.56L1415.98,1395.56L1415.98,1385.48L1391.07,1385.48L1391.07,1395.56L1400.18,1395.56Z" style="fill:white;fill-rule:nonzero;"/>
                            <path d="M1419.47,1385.48L1419.47,1440L1442.55,1440L1442.55,1429.92L1426.15,1429.92L1426.15,1416.56L1440.89,1416.56L1440.89,1407.24L1426.15,1407.24L1426.15,1395.56L1442.21,1395.56L1442.21,1385.48L1419.47,1385.48Z" style="fill:white;fill-rule:nonzero;"/>
                            <path d="M1453.75,1410.14L1453.75,1394.79L1461.07,1394.79C1462.6,1394.79 1463.75,1395.39 1464.52,1396.59C1465.28,1397.78 1465.67,1399.7 1465.67,1402.35C1465.67,1405.1 1465.28,1407.09 1464.52,1408.31C1463.75,1409.53 1462.6,1410.14 1461.07,1410.14L1453.75,1410.14ZM1447.06,1385.48L1447.06,1440L1453.75,1440L1453.75,1418.69L1460.43,1418.69C1462.1,1418.69 1463.31,1419.36 1464.05,1420.68C1464.79,1422 1465.27,1424.09 1465.5,1426.94C1465.67,1429.13 1465.8,1431.42 1465.88,1433.82C1465.96,1436.21 1466.19,1438.27 1466.56,1440L1473.25,1440C1472.93,1439.24 1472.7,1438.31 1472.54,1437.21C1472.39,1436.12 1472.27,1434.96 1472.2,1433.74C1472.13,1432.52 1472.08,1431.32 1472.05,1430.15C1472.03,1428.98 1472,1427.96 1471.97,1427.1C1471.91,1425.72 1471.81,1424.35 1471.65,1422.97C1471.49,1421.6 1471.25,1420.34 1470.9,1419.19C1470.56,1418.05 1470.12,1417.05 1469.58,1416.21C1469.05,1415.37 1468.36,1414.75 1467.54,1414.34L1467.54,1414.19C1469.24,1412.97 1470.47,1411.18 1471.22,1408.84C1471.98,1406.5 1472.35,1403.73 1472.35,1400.52C1472.35,1398.43 1472.15,1396.49 1471.73,1394.68C1471.32,1392.87 1470.73,1391.28 1469.95,1389.9C1469.16,1388.53 1468.23,1387.45 1467.14,1386.66C1466.04,1385.87 1464.82,1385.48 1463.45,1385.48L1447.06,1385.48Z" style="fill:white;fill-rule:nonzero;"/>
                            <path d="M1477.8,1385.48L1477.8,1440L1484.06,1440L1484.06,1403.5L1484.15,1403.5L1496.79,1440L1503.48,1440L1503.48,1385.48L1497.22,1385.48L1497.22,1422.06L1497.13,1422.06L1484.44,1385.48L1477.8,1385.48Z" style="fill:white;fill-rule:nonzero;"/>
                        </g>
                    </g>
                    <g id="Layer4">
                        <g id="Layer5">
                            <g id="Layer22">
                                <g id="Layer21">
                                    <path d="M964.604,1219.1C961.571,1197.2 960,1174.78 960,1152C960,949.284 1084.36,775.75 1260,705.425L1287.18,705.051" style="fill:none;stroke:white;stroke-width:12.21px;"/>
                                    <path d="M1576,701.086L1596,700.811C1777.92,767.873 1908,944.674 1908,1152C1908,1191.28 1903.33,1229.45 1894.53,1266" style="fill:none;stroke:white;stroke-width:12.21px;"/>
                                    <path d="M1770,1490.43C1684.13,1577.85 1565.26,1632 1434,1632C1315.54,1632 1207.18,1587.9 1124.04,1515.03" style="fill:none;stroke:white;stroke-width:12.21px;"/>
                                </g>
                                <g id="Layer20">
                                    <path d="M1680.67,1483.32C1610.89,1535.23 1524.19,1566 1430.29,1566C1336.41,1566 1249.73,1535.24 1179.96,1483.36" style="fill:none;stroke:white;stroke-width:12.21px;"/>
                                    <path d="M1014.4,1190.96C1013.19,1178.13 1012.58,1165.14 1012.58,1152C1012.58,983.601 1114.24,838.55 1260,773.904" style="fill:none;stroke:white;stroke-width:12.21px;"/>
                                    <path d="M1596,771.908C1744.2,835.522 1848,981.841 1848,1152C1848,1165.12 1847.38,1178.09 1846.18,1190.89" style="fill:none;stroke:white;stroke-width:12.21px;"/>
                                </g>
                            </g>
                            <path d="M1764,1032L1122,1032L1122,1152L1764,1152L1764,1032ZM1752,1044L1133.66,1044L1133.66,1140L1752,1140L1752,1044Z" style="fill:white;"/>
                            <g id="Layer2">
                            </g>
                        </g>
                        <g id="Layer6">
                            <path d="M709.027,1383.95L862.027,1648.96L1371.25,1354.96L1395.73,1266L1294,1266L1294,1178L1348.33,1178L1331.09,1146L1126.37,1143L709.027,1383.95ZM1174,1244L1197,1244C1197,1244 1195.75,1218.46 1218,1218C1227.26,1217.81 1237.38,1223.26 1238,1236C1238.57,1247.74 1233.74,1256.27 1212,1269C1164.61,1296.75 1172,1326 1172,1326L1264,1326L1264,1304L1204,1304C1205.47,1295.83 1233.65,1281.56 1246,1272C1252.51,1266.96 1264.04,1258.39 1264,1232C1263.96,1207.23 1238.18,1197.25 1222,1197C1194.43,1196.57 1172.71,1212.11 1174,1244ZM1043.26,1312.25L1043.26,1306.66L1048.19,1306.66C1048.65,1306.66 1049.11,1306.7 1049.54,1306.77C1049.98,1306.85 1050.36,1306.99 1050.7,1307.19C1051.03,1307.39 1051.3,1307.67 1051.5,1308.03C1051.7,1308.39 1051.8,1308.85 1051.8,1309.4C1051.8,1310.41 1051.5,1311.14 1050.9,1311.58C1050.3,1312.03 1049.53,1312.25 1048.59,1312.25L1043.26,1312.25ZM1038,1302.57L1038,1326.49L1049.59,1326.49C1050.66,1326.49 1051.71,1326.36 1052.72,1326.09C1053.74,1325.82 1054.65,1325.41 1055.44,1324.85C1056.23,1324.29 1056.86,1323.57 1057.33,1322.69C1057.8,1321.81 1058.04,1320.76 1058.04,1319.56C1058.04,1318.06 1057.67,1316.78 1056.95,1315.72C1056.22,1314.66 1055.12,1313.92 1053.65,1313.49C1054.72,1312.98 1055.53,1312.32 1056.08,1311.52C1056.62,1310.71 1056.9,1309.71 1056.9,1308.5C1056.9,1307.38 1056.71,1306.44 1056.34,1305.69C1055.97,1304.93 1055.46,1304.32 1054.79,1303.86C1054.12,1303.4 1053.31,1303.07 1052.37,1302.87C1051.44,1302.67 1050.4,1302.57 1049.26,1302.57L1038,1302.57ZM1043.26,1322.4L1043.26,1315.84L1048.99,1315.84C1050.13,1315.84 1051.05,1316.1 1051.74,1316.62C1052.43,1317.15 1052.78,1318.03 1052.78,1319.26C1052.78,1319.88 1052.67,1320.39 1052.46,1320.8C1052.25,1321.2 1051.96,1321.52 1051.6,1321.75C1051.25,1321.99 1050.83,1322.15 1050.36,1322.25C1049.89,1322.35 1049.4,1322.4 1048.89,1322.4L1043.26,1322.4ZM1066.85,1313.39L1066.85,1306.66L1072.61,1306.66C1073.82,1306.66 1074.72,1306.92 1075.33,1307.44C1075.93,1307.97 1076.23,1308.81 1076.23,1309.97C1076.23,1311.18 1075.93,1312.05 1075.33,1312.59C1074.72,1313.12 1073.82,1313.39 1072.61,1313.39L1066.85,1313.39ZM1061.59,1302.57L1061.59,1326.49L1066.85,1326.49L1066.85,1317.14L1072.11,1317.14C1073.43,1317.14 1074.38,1317.43 1074.96,1318.02C1075.54,1318.6 1075.92,1319.51 1076.1,1320.76C1076.23,1321.72 1076.33,1322.73 1076.4,1323.78C1076.46,1324.83 1076.64,1325.73 1076.93,1326.49L1082.19,1326.49C1081.95,1326.16 1081.76,1325.75 1081.64,1325.27C1081.52,1324.79 1081.43,1324.28 1081.37,1323.75C1081.32,1323.21 1081.28,1322.68 1081.26,1322.17C1081.23,1321.66 1081.21,1321.21 1081.19,1320.83C1081.14,1320.23 1081.06,1319.62 1080.94,1319.02C1080.81,1318.42 1080.62,1317.87 1080.35,1317.36C1080.08,1316.86 1079.74,1316.42 1079.31,1316.06C1078.89,1315.69 1078.35,1315.41 1077.7,1315.24L1077.7,1315.17C1079.04,1314.63 1080.01,1313.85 1080.6,1312.82C1081.19,1311.8 1081.49,1310.58 1081.49,1309.17C1081.49,1308.25 1081.33,1307.4 1081,1306.61C1080.68,1305.81 1080.21,1305.12 1079.6,1304.51C1078.98,1303.91 1078.25,1303.43 1077.38,1303.09C1076.53,1302.74 1075.56,1302.57 1074.49,1302.57L1061.59,1302.57ZM1085.78,1302.57L1085.78,1326.49L1091.04,1326.49L1091.04,1302.57L1085.78,1302.57ZM1100.92,1322.07L1100.92,1306.99L1104.67,1306.99C1105.97,1306.99 1107.06,1307.18 1107.94,1307.55C1108.82,1307.91 1109.53,1308.44 1110.07,1309.14C1110.61,1309.83 1110.99,1310.66 1111.23,1311.63C1111.46,1312.6 1111.58,1313.69 1111.58,1314.9C1111.58,1316.22 1111.41,1317.33 1111.08,1318.25C1110.74,1319.17 1110.29,1319.91 1109.73,1320.48C1109.18,1321.05 1108.54,1321.45 1107.83,1321.7C1107.11,1321.95 1106.37,1322.07 1105.61,1322.07L1100.92,1322.07ZM1095.66,1302.57L1095.66,1326.49L1105.98,1326.49C1107.81,1326.49 1109.4,1326.18 1110.76,1325.57C1112.11,1324.96 1113.24,1324.11 1114.14,1323.04C1115.05,1321.97 1115.72,1320.7 1116.17,1319.22C1116.61,1317.75 1116.84,1316.14 1116.84,1314.4C1116.84,1312.41 1116.56,1310.68 1116.02,1309.2C1115.47,1307.73 1114.71,1306.5 1113.74,1305.52C1112.77,1304.54 1111.62,1303.8 1110.29,1303.31C1108.96,1302.82 1107.52,1302.57 1105.98,1302.57L1095.66,1302.57ZM1137.78,1323.78L1138.31,1326.49L1141.66,1326.49L1141.66,1313.56L1131.61,1313.56L1131.61,1317.48L1136.91,1317.48C1136.75,1319.15 1136.2,1320.43 1135.25,1321.32C1134.3,1322.2 1132.95,1322.64 1131.21,1322.64C1130.03,1322.64 1129.02,1322.41 1128.2,1321.95C1127.37,1321.49 1126.7,1320.89 1126.18,1320.13C1125.67,1319.37 1125.3,1318.51 1125.06,1317.56C1124.83,1316.61 1124.71,1315.64 1124.71,1314.63C1124.71,1313.58 1124.83,1312.57 1125.06,1311.58C1125.3,1310.6 1125.67,1309.72 1126.18,1308.95C1126.7,1308.18 1127.37,1307.57 1128.2,1307.11C1129.02,1306.65 1130.03,1306.42 1131.21,1306.42C1132.48,1306.42 1133.57,1306.76 1134.46,1307.43C1135.36,1308.1 1135.96,1309.1 1136.27,1310.44L1141.3,1310.44C1141.16,1309.08 1140.79,1307.88 1140.19,1306.83C1139.59,1305.78 1138.82,1304.89 1137.89,1304.18C1136.97,1303.46 1135.93,1302.92 1134.78,1302.55C1133.63,1302.18 1132.44,1302 1131.21,1302C1129.38,1302 1127.73,1302.32 1126.27,1302.97C1124.81,1303.62 1123.57,1304.51 1122.57,1305.65C1121.56,1306.79 1120.79,1308.13 1120.26,1309.66C1119.72,1311.19 1119.45,1312.84 1119.45,1314.63C1119.45,1316.37 1119.72,1318 1120.26,1319.51C1120.79,1321.01 1121.56,1322.33 1122.57,1323.44C1123.57,1324.56 1124.81,1325.44 1126.27,1326.07C1127.73,1326.71 1129.38,1327.03 1131.21,1327.03C1132.37,1327.03 1133.52,1326.79 1134.66,1326.31C1135.8,1325.83 1136.84,1324.99 1137.78,1323.78ZM1145.92,1302.57L1145.92,1326.49L1164.08,1326.49L1164.08,1322.07L1151.18,1322.07L1151.18,1316.21L1162.77,1316.21L1162.77,1312.12L1151.18,1312.12L1151.18,1306.99L1163.81,1306.99L1163.81,1302.57L1145.92,1302.57ZM1037.01,1399.92L1038.08,1400.64C1038.21,1401.93 1038.56,1403.05 1039.12,1404.02C1039.68,1404.98 1040.37,1405.81 1041.17,1406.49C1041.98,1407.17 1042.85,1407.69 1043.79,1408.06C1044.73,1408.42 1045.63,1408.6 1046.48,1408.6C1049.17,1408.6 1051.13,1407.89 1052.36,1406.49C1053.59,1405.08 1054.21,1402.45 1054.21,1398.59L1054.21,1359.91C1054.21,1358.78 1053.94,1357.9 1053.4,1357.26C1052.87,1356.61 1052.35,1356.29 1051.86,1356.29L1051.86,1354.12L1064.62,1354.12L1064.62,1356.29C1063.86,1356.29 1063.21,1356.61 1062.68,1357.26C1062.14,1357.9 1061.87,1358.78 1061.87,1359.91L1061.87,1399.68C1061.87,1402.81 1061.5,1405.55 1060.76,1407.88C1060.02,1410.2 1058.98,1412.13 1057.64,1413.66C1056.29,1415.19 1054.7,1416.27 1052.87,1416.91C1051.03,1417.56 1048.99,1417.88 1046.75,1417.88C1045.36,1417.88 1044.08,1417.72 1042.92,1417.4C1041.76,1417.07 1040.71,1416.69 1039.8,1416.25C1038.88,1415.81 1038.07,1415.39 1037.38,1414.99C1036.68,1414.58 1036.11,1414.38 1035.66,1414.38C1035.17,1414.38 1034.77,1414.87 1034.45,1415.83L1033.44,1414.62L1037.01,1399.92ZM1094.93,1392.93L1089.29,1370.51L1082.97,1392.93L1094.93,1392.93ZM1069.6,1415.35C1070.18,1415.19 1070.64,1414.66 1070.98,1413.78C1071.31,1412.9 1071.64,1411.89 1071.95,1410.77L1084.38,1363.88C1084.7,1362.84 1084.98,1361.88 1085.22,1360.99C1085.47,1360.11 1085.59,1359.35 1085.59,1358.7C1085.59,1357.9 1085.43,1357.34 1085.12,1357.02C1084.81,1356.69 1084.47,1356.45 1084.11,1356.29L1084.11,1354.12L1095.47,1354.12L1095.47,1356.29C1095.16,1356.45 1094.84,1356.67 1094.53,1356.95C1094.22,1357.24 1094.06,1357.82 1094.06,1358.7C1094.06,1359.35 1094.14,1359.99 1094.29,1360.63C1094.45,1361.27 1094.69,1362.12 1095,1363.16L1108.98,1412.21C1109.2,1413.1 1109.5,1413.74 1109.88,1414.14C1110.27,1414.54 1110.7,1414.94 1111.19,1415.35L1111.19,1417.52L1099.37,1417.52L1099.37,1415.35C1099.55,1415.35 1099.77,1415.23 1100.04,1414.99C1100.31,1414.74 1100.44,1414.38 1100.44,1413.9C1100.44,1413.1 1100.26,1412.05 1099.91,1410.77L1097.35,1401.85L1080.95,1401.85L1078.54,1410.41C1078.09,1412.09 1077.86,1413.3 1077.86,1414.02C1077.86,1414.9 1078.29,1415.35 1079.14,1415.35L1079.14,1417.52L1069.6,1417.52L1069.6,1415.35ZM1140.96,1378.95C1142.98,1378.95 1144.65,1378.49 1145.97,1377.56C1147.29,1376.64 1147.95,1374.69 1147.95,1371.72C1147.95,1368.75 1147.29,1366.8 1145.97,1365.87C1144.65,1364.95 1142.98,1364.49 1140.96,1364.49L1128.13,1364.49L1128.13,1378.95L1140.96,1378.95ZM1140.96,1406.43C1143.79,1406.43 1145.82,1405.64 1147.05,1404.08C1148.28,1402.51 1148.89,1400.44 1148.89,1397.87C1148.89,1395.3 1148.28,1393.23 1147.05,1391.66C1145.82,1390.1 1143.79,1389.31 1140.96,1389.31L1128.13,1389.31L1128.13,1406.43L1140.96,1406.43ZM1139.62,1354.12C1141.68,1354.12 1143.68,1354.42 1145.6,1355.03C1147.53,1355.63 1149.23,1356.59 1150.71,1357.92C1152.19,1359.24 1153.38,1360.97 1154.27,1363.1C1155.17,1365.23 1155.62,1367.86 1155.62,1371C1155.62,1374.77 1154.97,1377.68 1153.67,1379.73C1152.37,1381.78 1150.82,1383.37 1149.03,1384.49L1149.03,1384.74C1151.13,1385.86 1152.92,1387.65 1154.37,1390.1C1155.83,1392.55 1156.56,1396.06 1156.56,1400.64C1156.56,1403.05 1156.27,1405.28 1155.68,1407.33C1155.1,1409.38 1154.24,1411.17 1153.1,1412.7C1151.95,1414.22 1150.55,1415.41 1148.89,1416.25C1147.24,1417.1 1145.36,1417.52 1143.25,1417.52L1118.59,1417.52L1118.59,1415.35C1119.84,1415.35 1120.47,1414.62 1120.47,1413.18L1120.47,1358.46C1120.47,1357.02 1119.84,1356.29 1118.59,1356.29L1118.59,1354.12L1139.62,1354.12ZM1191.62,1337.25L999,1337.25L999,1436.25L1191.62,1436.25L1191.62,1337.25ZM1180.64,1348.23L1180.64,1425.27C1180.64,1425.27 1009.98,1425.27 1009.98,1425.27C1009.98,1425.27 1009.98,1348.23 1009.98,1348.23L1180.64,1348.23Z" style="fill:white;"/>
                            <path d="M1996.7,1647.5L2149.7,1382.5L1740,1145.96L1531.96,1146.87L1514.06,1176L1560,1176L1558,1266L1464,1265.88L1487.48,1353.5L1996.7,1647.5ZM1588,1237L1613,1237C1613,1237 1613.23,1229.04 1614,1227C1617.48,1217.83 1624.78,1216.31 1632,1216C1636.86,1215.79 1648.39,1217.93 1649,1232C1649.24,1237.63 1646.82,1250.36 1630,1250C1627.11,1249.94 1623,1250 1623,1250L1623,1268C1626.96,1268.68 1652.43,1263.56 1652,1288C1651.73,1303.09 1642.54,1307.88 1630,1308C1615.91,1308.14 1610.82,1296.4 1611,1285L1586,1285C1586.66,1321.44 1609.75,1328.41 1631,1329C1651.94,1329.58 1677.69,1317.38 1678,1289C1678.15,1274.69 1673.58,1261.4 1659,1257C1668.29,1249.52 1674.29,1247.59 1674,1229C1673.68,1208.12 1660.01,1196.53 1634,1196C1610.76,1195.53 1587,1208 1588,1237ZM1802.22,1312.8L1802.22,1305.63L1806.3,1305.63C1806.91,1305.63 1807.49,1305.67 1808.05,1305.76C1808.61,1305.85 1809.1,1306.03 1809.52,1306.28C1809.94,1306.54 1810.29,1306.9 1810.54,1307.37C1810.8,1307.84 1810.93,1308.45 1810.93,1309.21C1810.93,1309.97 1810.8,1310.59 1810.54,1311.06C1810.29,1311.53 1809.94,1311.89 1809.52,1312.15C1809.1,1312.4 1808.61,1312.58 1808.05,1312.66C1807.49,1312.75 1806.91,1312.8 1806.3,1312.8L1802.22,1312.8ZM1796.96,1301.54L1796.96,1325.46L1802.22,1325.46L1802.22,1316.89L1807.75,1316.89C1809.24,1316.89 1810.52,1316.67 1811.56,1316.23C1812.61,1315.8 1813.47,1315.22 1814.13,1314.51C1814.79,1313.79 1815.27,1312.97 1815.57,1312.05C1815.87,1311.12 1816.02,1310.17 1816.02,1309.21C1816.02,1308.23 1815.87,1307.28 1815.57,1306.37C1815.27,1305.45 1814.79,1304.63 1814.13,1303.92C1813.47,1303.2 1812.61,1302.63 1811.56,1302.19C1810.52,1301.76 1809.24,1301.54 1807.75,1301.54L1796.96,1301.54ZM1756.68,1301.54L1756.68,1325.46L1761.94,1325.46L1761.94,1301.54L1756.68,1301.54ZM1766.57,1301.54L1766.57,1325.46L1771.49,1325.46L1771.49,1308.68L1771.56,1308.68L1777.42,1325.46L1781.48,1325.46L1787.34,1308.51L1787.41,1308.51L1787.41,1325.46L1792.33,1325.46L1792.33,1301.54L1784.93,1301.54L1779.63,1317.99L1779.57,1317.99L1773.97,1301.54L1766.57,1301.54ZM1737.75,1312.36L1737.75,1305.63L1743.52,1305.63C1744.72,1305.63 1745.63,1305.89 1746.23,1306.42C1746.83,1306.94 1747.13,1307.78 1747.13,1308.95C1747.13,1310.15 1746.83,1311.02 1746.23,1311.56C1745.63,1312.1 1744.72,1312.36 1743.52,1312.36L1737.75,1312.36ZM1732.49,1301.54L1732.49,1325.46L1737.75,1325.46L1737.75,1316.12L1743.01,1316.12C1744.33,1316.12 1745.28,1316.41 1745.86,1316.99C1746.44,1317.57 1746.82,1318.48 1747,1319.74C1747.13,1320.69 1747.24,1321.7 1747.3,1322.75C1747.37,1323.8 1747.55,1324.7 1747.84,1325.46L1753.1,1325.46C1752.85,1325.13 1752.67,1324.72 1752.55,1324.24C1752.42,1323.76 1752.33,1323.25 1752.28,1322.72C1752.22,1322.18 1752.18,1321.66 1752.16,1321.14C1752.14,1320.63 1752.12,1320.18 1752.09,1319.8C1752.05,1319.2 1751.96,1318.6 1751.84,1317.99C1751.72,1317.39 1751.52,1316.84 1751.26,1316.33C1750.99,1315.83 1750.64,1315.4 1750.22,1315.03C1749.79,1314.66 1749.26,1314.38 1748.61,1314.21L1748.61,1314.14C1749.95,1313.6 1750.91,1312.82 1751.51,1311.79C1752.1,1310.77 1752.39,1309.55 1752.39,1308.14C1752.39,1307.23 1752.23,1306.37 1751.91,1305.58C1751.59,1304.79 1751.12,1304.09 1750.5,1303.49C1749.89,1302.88 1749.15,1302.41 1748.29,1302.06C1747.43,1301.71 1746.46,1301.54 1745.39,1301.54L1732.49,1301.54ZM1707.66,1301.54L1707.66,1325.46L1712.92,1325.46L1712.92,1315.14L1722.61,1315.14L1722.61,1325.46L1727.87,1325.46L1727.87,1301.54L1722.61,1301.54L1722.61,1310.72L1712.92,1310.72L1712.92,1301.54L1707.66,1301.54ZM1689.51,1317.52L1684.41,1317.52C1684.39,1319 1684.66,1320.27 1685.22,1321.34C1685.78,1322.41 1686.53,1323.3 1687.48,1323.99C1688.43,1324.68 1689.52,1325.19 1690.76,1325.51C1692,1325.84 1693.28,1326 1694.6,1326C1696.23,1326 1697.66,1325.81 1698.9,1325.43C1700.14,1325.05 1701.18,1324.52 1702.02,1323.84C1702.86,1323.16 1703.49,1322.35 1703.91,1321.41C1704.34,1320.47 1704.55,1319.45 1704.55,1318.36C1704.55,1317.02 1704.26,1315.92 1703.69,1315.06C1703.12,1314.2 1702.45,1313.51 1701.67,1313C1700.89,1312.49 1700.1,1312.11 1699.31,1311.88C1698.51,1311.64 1697.89,1311.48 1697.45,1311.39C1695.95,1311.01 1694.74,1310.7 1693.81,1310.45C1692.88,1310.21 1692.16,1309.96 1691.63,1309.72C1691.11,1309.47 1690.76,1309.2 1690.58,1308.91C1690.4,1308.62 1690.31,1308.24 1690.31,1307.77C1690.31,1307.26 1690.42,1306.84 1690.64,1306.5C1690.87,1306.16 1691.15,1305.89 1691.5,1305.66C1691.85,1305.44 1692.23,1305.28 1692.65,1305.19C1693.08,1305.1 1693.5,1305.06 1693.93,1305.06C1694.58,1305.06 1695.17,1305.12 1695.72,1305.23C1696.27,1305.34 1696.75,1305.53 1697.18,1305.8C1697.6,1306.06 1697.94,1306.43 1698.2,1306.9C1698.46,1307.37 1698.61,1307.96 1698.65,1308.68L1703.75,1308.68C1703.75,1307.29 1703.48,1306.12 1702.96,1305.14C1702.43,1304.17 1701.72,1303.37 1700.83,1302.75C1699.94,1302.12 1698.91,1301.67 1697.76,1301.39C1696.61,1301.11 1695.41,1300.97 1694.16,1300.97C1693.09,1300.97 1692.02,1301.12 1690.95,1301.41C1689.87,1301.7 1688.91,1302.14 1688.07,1302.75C1687.22,1303.35 1686.53,1304.1 1686,1305.01C1685.48,1305.91 1685.22,1306.98 1685.22,1308.21C1685.22,1309.3 1685.42,1310.24 1685.84,1311.01C1686.25,1311.78 1686.79,1312.42 1687.46,1312.93C1688.13,1313.45 1688.89,1313.87 1689.74,1314.19C1690.59,1314.51 1691.46,1314.79 1692.35,1315.01C1693.22,1315.26 1694.08,1315.48 1694.93,1315.68C1695.78,1315.88 1696.54,1316.12 1697.21,1316.38C1697.88,1316.65 1698.42,1316.99 1698.84,1317.39C1699.25,1317.79 1699.46,1318.32 1699.46,1318.96C1699.46,1319.57 1699.3,1320.06 1698.99,1320.45C1698.67,1320.85 1698.28,1321.15 1697.82,1321.38C1697.35,1321.6 1696.84,1321.75 1696.31,1321.83C1695.77,1321.91 1695.27,1321.95 1694.8,1321.95C1694.11,1321.95 1693.44,1321.86 1692.79,1321.69C1692.14,1321.53 1691.58,1321.27 1691.1,1320.92C1690.62,1320.58 1690.23,1320.12 1689.94,1319.57C1689.65,1319.01 1689.51,1318.33 1689.51,1317.52ZM1870.35,1397.99L1871.02,1398.59C1871.02,1399.32 1871.11,1399.96 1871.29,1400.52C1871.6,1401.49 1872.22,1402.43 1873.14,1403.36C1874.06,1404.28 1875.11,1405.1 1876.3,1405.83C1877.48,1406.55 1878.73,1407.13 1880.03,1407.57C1881.33,1408.02 1882.49,1408.24 1883.52,1408.24C1884.28,1408.24 1885.27,1408.14 1886.48,1407.93C1887.69,1407.73 1888.87,1407.31 1890.04,1406.67C1891.2,1406.03 1892.21,1405.14 1893.06,1404.02C1893.91,1402.89 1894.34,1401.41 1894.34,1399.56C1894.34,1397.71 1893.95,1396.35 1893.16,1395.46C1892.38,1394.58 1891.35,1393.93 1890.07,1393.53C1888.8,1393.13 1887.34,1392.87 1885.7,1392.75C1884.07,1392.63 1882.4,1392.45 1880.7,1392.21C1879,1391.97 1877.33,1391.56 1875.69,1391C1874.06,1390.44 1872.6,1389.5 1871.32,1388.17C1870.05,1386.84 1869.02,1385.04 1868.23,1382.75C1867.45,1380.46 1867.06,1377.46 1867.06,1373.77C1867.06,1371.28 1867.38,1368.83 1868.03,1366.41C1868.68,1364.01 1869.68,1361.88 1871.02,1360.03C1872.36,1358.18 1874.07,1356.67 1876.13,1355.51C1878.19,1354.34 1880.61,1353.76 1883.38,1353.76C1885.76,1353.76 1887.82,1354.08 1889.57,1354.73C1891.32,1355.37 1892.83,1356.05 1894.1,1356.77C1895.38,1357.5 1896.46,1358.18 1897.33,1358.82C1898.2,1359.46 1898.93,1359.79 1899.51,1359.79C1900.14,1359.79 1900.59,1359.55 1900.86,1359.06L1901.66,1360.03L1897.03,1375.09L1896.36,1374.61C1896.27,1373.49 1896.09,1372.56 1895.82,1371.84C1895.46,1370.88 1894.87,1369.93 1894.04,1369.01C1893.21,1368.08 1892.23,1367.26 1891.11,1366.54C1889.99,1365.81 1888.78,1365.23 1887.49,1364.79C1886.18,1364.35 1884.89,1364.12 1883.59,1364.12C1882.6,1364.12 1881.58,1364.27 1880.53,1364.55C1879.48,1364.83 1878.53,1365.25 1877.67,1365.81C1876.82,1366.38 1876.12,1367.12 1875.56,1368.04C1875,1368.97 1874.72,1370.11 1874.72,1371.48C1874.72,1373.41 1875.11,1374.85 1875.89,1375.82C1876.68,1376.78 1877.71,1377.5 1878.98,1377.99C1880.26,1378.47 1881.72,1378.79 1883.35,1378.95C1884.99,1379.11 1886.66,1379.31 1888.36,1379.55C1890.06,1379.79 1891.73,1380.21 1893.37,1380.82C1895,1381.42 1896.46,1382.38 1897.73,1383.71C1899.01,1385.04 1900.04,1386.82 1900.82,1389.07C1901.61,1391.32 1902,1394.26 1902,1397.87C1902,1402.05 1901.38,1405.46 1900.15,1408.12C1898.92,1410.77 1897.39,1412.86 1895.55,1414.38C1893.71,1415.91 1891.73,1416.93 1889.6,1417.46C1887.47,1417.98 1885.49,1418.24 1883.65,1418.24C1881.1,1418.24 1878.96,1417.98 1877.24,1417.46C1875.51,1416.93 1874.08,1416.29 1872.94,1415.53C1871.79,1414.76 1870.89,1414.08 1870.21,1413.48C1869.54,1412.88 1868.96,1412.58 1868.47,1412.58C1868.15,1412.58 1867.86,1412.9 1867.59,1413.54L1866.65,1412.58L1870.35,1397.99ZM1742.94,1382.69C1744.55,1382.69 1745.89,1382.46 1746.97,1382.02C1748.04,1381.58 1748.89,1380.96 1749.52,1380.15C1750.15,1379.35 1750.6,1378.41 1750.87,1377.32C1751.13,1376.24 1751.27,1375.05 1751.27,1373.77C1751.27,1372.48 1751.13,1371.3 1750.87,1370.21C1750.6,1369.13 1750.15,1368.18 1749.52,1367.38C1748.89,1366.58 1748.04,1365.95 1746.97,1365.51C1745.89,1365.07 1744.55,1364.85 1742.94,1364.85L1731.31,1364.85L1731.31,1382.69L1742.94,1382.69ZM1744.68,1354.48C1746.83,1354.48 1748.78,1354.83 1750.53,1355.51C1752.28,1356.19 1753.78,1357.28 1755.03,1358.76C1756.29,1360.25 1757.25,1362.18 1757.92,1364.55C1758.59,1366.92 1758.93,1369.83 1758.93,1373.29C1758.93,1378.59 1758.06,1382.64 1756.31,1385.46C1754.56,1388.27 1752.21,1390.16 1749.25,1391.12L1758.19,1414.02C1758.5,1414.83 1758.87,1415.31 1759.3,1415.47C1759.73,1415.63 1760.12,1415.71 1760.48,1415.71L1760.48,1417.88L1747.91,1417.88L1747.91,1415.71C1748.31,1415.71 1748.66,1415.59 1748.95,1415.35C1749.24,1415.11 1749.39,1414.79 1749.39,1414.38C1749.39,1413.98 1749.3,1413.52 1749.12,1413C1748.94,1412.48 1748.67,1411.77 1748.31,1410.89L1740.92,1392.09L1731.31,1392.09L1731.31,1413.54C1731.31,1414.26 1731.45,1414.81 1731.75,1415.17C1732.04,1415.53 1732.56,1415.71 1733.33,1415.71L1733.33,1417.88L1721.7,1417.88L1721.7,1415.71C1723,1415.71 1723.65,1414.99 1723.65,1413.54L1723.65,1358.82C1723.65,1357.38 1723,1356.65 1721.7,1356.65L1721.7,1354.48L1744.68,1354.48ZM1790.98,1364.85C1789.28,1364.85 1787.58,1365.33 1785.88,1366.3C1784.17,1367.26 1782.64,1368.64 1781.27,1370.45C1779.91,1372.26 1778.8,1374.49 1777.95,1377.14C1777.1,1379.79 1776.67,1382.81 1776.67,1386.18C1776.67,1389.56 1777.1,1392.57 1777.95,1395.22C1778.8,1397.87 1779.91,1400.1 1781.27,1401.91C1782.64,1403.72 1784.17,1405.1 1785.88,1406.07C1787.58,1407.03 1789.28,1407.51 1790.98,1407.51C1792.69,1407.51 1794.39,1407.03 1796.09,1406.07C1797.79,1405.1 1799.33,1403.72 1800.69,1401.91C1802.06,1400.1 1803.17,1397.87 1804.02,1395.22C1804.87,1392.57 1805.3,1389.56 1805.3,1386.18C1805.3,1382.81 1804.87,1379.79 1804.02,1377.14C1803.17,1374.49 1802.06,1372.26 1800.69,1370.45C1799.33,1368.64 1797.79,1367.26 1796.09,1366.3C1794.39,1365.33 1792.69,1364.85 1790.98,1364.85ZM1790.98,1353.76C1793.45,1353.76 1795.96,1354.42 1798.51,1355.75C1801.06,1357.08 1803.39,1359.06 1805.5,1361.71C1807.61,1364.37 1809.33,1367.72 1810.67,1371.78C1812.02,1375.84 1812.69,1380.64 1812.69,1386.18C1812.69,1391.73 1812.02,1396.53 1810.67,1400.58C1809.33,1404.64 1807.61,1408 1805.5,1410.65C1803.39,1413.3 1801.06,1415.23 1798.51,1416.43C1795.96,1417.64 1793.45,1418.24 1790.98,1418.24C1788.52,1418.24 1786.01,1417.64 1783.46,1416.43C1780.9,1415.23 1778.57,1413.3 1776.47,1410.65C1774.36,1408 1772.64,1404.64 1771.29,1400.58C1769.95,1396.53 1769.28,1391.73 1769.28,1386.18C1769.28,1380.64 1769.95,1375.84 1771.29,1371.78C1772.64,1367.72 1774.36,1364.37 1776.47,1361.71C1778.57,1359.06 1780.9,1357.08 1783.46,1355.75C1786.01,1354.42 1788.52,1353.76 1790.98,1353.76ZM1825.53,1397.99L1826.2,1398.59C1826.2,1399.32 1826.29,1399.96 1826.47,1400.52C1826.78,1401.49 1827.4,1402.43 1828.31,1403.36C1829.23,1404.28 1830.29,1405.1 1831.47,1405.83C1832.66,1406.55 1833.9,1407.13 1835.2,1407.57C1836.5,1408.02 1837.67,1408.24 1838.7,1408.24C1839.46,1408.24 1840.44,1408.14 1841.65,1407.93C1842.86,1407.73 1844.05,1407.31 1845.22,1406.67C1846.38,1406.03 1847.39,1405.14 1848.24,1404.02C1849.09,1402.89 1849.52,1401.41 1849.52,1399.56C1849.52,1397.71 1849.12,1396.35 1848.34,1395.46C1847.56,1394.58 1846.53,1393.93 1845.25,1393.53C1843.97,1393.13 1842.52,1392.87 1840.88,1392.75C1839.25,1392.63 1837.58,1392.45 1835.87,1392.21C1834.17,1391.97 1832.5,1391.56 1830.87,1391C1829.23,1390.44 1827.78,1389.5 1826.5,1388.17C1825.22,1386.84 1824.19,1385.04 1823.41,1382.75C1822.62,1380.46 1822.23,1377.46 1822.23,1373.77C1822.23,1371.28 1822.56,1368.83 1823.21,1366.41C1823.86,1364.01 1824.85,1361.88 1826.2,1360.03C1827.54,1358.18 1829.24,1356.67 1831.31,1355.51C1833.37,1354.34 1835.79,1353.76 1838.56,1353.76C1840.94,1353.76 1843,1354.08 1844.75,1354.73C1846.49,1355.37 1848,1356.05 1849.28,1356.77C1850.56,1357.5 1851.63,1358.18 1852.51,1358.82C1853.38,1359.46 1854.11,1359.79 1854.69,1359.79C1855.32,1359.79 1855.77,1359.55 1856.04,1359.06L1856.84,1360.03L1852.2,1375.09L1851.53,1374.61C1851.44,1373.49 1851.26,1372.56 1851,1371.84C1850.64,1370.88 1850.04,1369.93 1849.21,1369.01C1848.38,1368.08 1847.41,1367.26 1846.29,1366.54C1845.17,1365.81 1843.96,1365.23 1842.66,1364.79C1841.36,1364.35 1840.06,1364.12 1838.76,1364.12C1837.78,1364.12 1836.76,1364.27 1835.71,1364.55C1834.65,1364.83 1833.7,1365.25 1832.85,1365.81C1832,1366.38 1831.29,1367.12 1830.73,1368.04C1830.17,1368.97 1829.89,1370.11 1829.89,1371.48C1829.89,1373.41 1830.29,1374.85 1831.07,1375.82C1831.85,1376.78 1832.88,1377.5 1834.16,1377.99C1835.44,1378.47 1836.89,1378.79 1838.53,1378.95C1840.16,1379.11 1841.83,1379.31 1843.54,1379.55C1845.24,1379.79 1846.91,1380.21 1848.54,1380.82C1850.18,1381.42 1851.63,1382.38 1852.91,1383.71C1854.19,1385.04 1855.22,1386.82 1856,1389.07C1856.79,1391.32 1857.18,1394.26 1857.18,1397.87C1857.18,1402.05 1856.56,1405.46 1855.33,1408.12C1854.1,1410.77 1852.56,1412.86 1850.73,1414.38C1848.89,1415.91 1846.91,1416.93 1844.78,1417.46C1842.65,1417.98 1840.67,1418.24 1838.83,1418.24C1836.28,1418.24 1834.14,1417.98 1832.41,1417.46C1830.69,1416.93 1829.26,1416.29 1828.11,1415.53C1826.97,1414.76 1826.06,1414.08 1825.39,1413.48C1824.72,1412.88 1824.14,1412.58 1823.64,1412.58C1823.33,1412.58 1823.04,1412.9 1822.77,1413.54L1821.83,1412.58L1825.53,1397.99ZM1710.88,1409.2C1710.75,1409.2 1710.62,1409.18 1710.51,1409.14C1710.4,1409.1 1710.28,1409.08 1710.14,1409.08C1709.87,1409.08 1709.23,1409.56 1708.23,1410.53C1707.22,1411.49 1705.94,1412.58 1704.4,1413.78C1702.85,1414.99 1701.09,1416.03 1699.12,1416.91C1697.15,1417.8 1695.09,1418.24 1692.94,1418.24C1690.12,1418.24 1687.4,1417.6 1684.81,1416.31C1682.21,1415.03 1679.91,1413.04 1677.92,1410.35C1675.92,1407.65 1674.35,1404.3 1673.18,1400.28C1672.02,1396.26 1671.43,1391.56 1671.43,1386.18C1671.43,1380.88 1672.02,1376.2 1673.18,1372.14C1674.35,1368.08 1675.92,1364.69 1677.92,1361.96C1679.91,1359.22 1682.21,1357.17 1684.81,1355.81C1687.4,1354.44 1690.12,1353.76 1692.94,1353.76C1695.22,1353.76 1697.3,1354.08 1699.15,1354.73C1701.01,1355.37 1702.64,1356.05 1704.03,1356.77C1705.41,1357.5 1706.51,1358.18 1707.32,1358.82C1708.13,1359.46 1708.62,1359.79 1708.8,1359.79C1709.02,1359.79 1709.21,1359.59 1709.37,1359.18C1709.53,1358.78 1709.65,1358.46 1709.74,1358.22L1710.75,1359.67L1705.51,1374.25L1704.83,1373.41C1704.83,1373.16 1704.82,1372.92 1704.8,1372.68C1704.78,1372.44 1704.74,1372.16 1704.7,1371.84C1704.61,1370.95 1704.16,1370.05 1703.35,1369.13C1702.55,1368.2 1701.55,1367.38 1700.36,1366.66C1699.18,1365.93 1697.92,1365.33 1696.6,1364.85C1695.28,1364.37 1694.06,1364.12 1692.94,1364.12C1691.06,1364.12 1689.25,1364.61 1687.53,1365.57C1685.8,1366.54 1684.3,1367.94 1683.03,1369.79C1681.75,1371.64 1680.73,1373.91 1679.97,1376.6C1679.21,1379.29 1678.83,1382.36 1678.83,1385.82C1678.83,1389.27 1679.21,1392.35 1679.97,1395.04C1680.73,1397.73 1681.75,1400 1683.03,1401.85C1684.3,1403.7 1685.8,1405.1 1687.53,1406.07C1689.25,1407.03 1691.06,1407.51 1692.94,1407.51C1694.37,1407.51 1695.87,1407.21 1697.44,1406.61C1699.01,1406.01 1700.44,1405.24 1701.74,1404.32C1703.04,1403.39 1704.13,1402.35 1705,1401.19C1705.87,1400.02 1706.31,1398.92 1706.31,1397.87C1706.31,1397.31 1706.22,1396.83 1706.04,1396.42L1706.98,1395.46L1711.42,1408.24L1710.88,1409.2ZM1926,1337.25L1652.38,1337.25L1652.38,1436.25L1926,1436.25L1926,1337.25ZM1915.02,1348.23L1915.02,1425.27C1915.02,1425.27 1663.36,1425.27 1663.36,1425.27C1663.36,1425.27 1663.36,1348.23 1663.36,1348.23C1663.36,1348.23 1915.02,1348.23 1915.02,1348.23L1915.02,1348.23Z" style="fill:white;"/>
                            <path d="M1584,408L1278,408L1278,996L1313.52,1032L1548,1032L1584,996L1584,408ZM1444,846L1424,846C1423.06,863.999 1413.45,868.781 1388,868.953L1388,886L1420,886L1420,974L1444,974L1444,846ZM1375.17,987.964L1375.17,1007.46L1380.43,1007.46L1380.43,987.964L1387.6,987.964L1387.6,983.541L1368,983.541L1368,987.964L1375.17,987.964ZM1410.65,998.418L1410.65,983.541L1405.39,983.541L1405.39,998.418C1405.39,1000.2 1405.03,1001.52 1404.32,1002.35C1403.61,1003.19 1402.31,1003.61 1400.43,1003.61C1399.36,1003.61 1398.51,1003.46 1397.87,1003.16C1397.23,1002.86 1396.74,1002.47 1396.38,1001.99C1396.02,1001.51 1395.79,1000.95 1395.67,1000.33C1395.56,999.702 1395.51,999.065 1395.51,998.418L1395.51,983.541L1390.25,983.541L1390.25,998.418C1390.25,1001.68 1391.13,1004.09 1392.91,1005.65C1394.69,1007.22 1397.19,1008 1400.43,1008C1403.63,1008 1406.13,1007.21 1407.94,1005.64C1409.75,1004.06 1410.65,1001.66 1410.65,998.418ZM1420.44,994.363L1420.44,987.629L1426.2,987.629C1427.4,987.629 1428.31,987.891 1428.91,988.416C1429.52,988.941 1429.82,989.784 1429.82,990.946C1429.82,992.152 1429.52,993.023 1428.91,993.559C1428.31,994.095 1427.4,994.363 1426.2,994.363L1420.44,994.363ZM1415.17,983.541L1415.17,1007.46L1420.44,1007.46L1420.44,998.116L1425.7,998.116C1427.01,998.116 1427.96,998.406 1428.54,998.987C1429.12,999.568 1429.5,1000.48 1429.68,1001.74C1429.82,1002.7 1429.92,1003.7 1429.98,1004.75C1430.05,1005.8 1430.23,1006.7 1430.52,1007.46L1435.78,1007.46C1435.54,1007.13 1435.35,1006.72 1435.23,1006.24C1435.11,1005.76 1435.02,1005.25 1434.96,1004.72C1434.9,1004.18 1434.87,1003.66 1434.84,1003.14C1434.82,1002.63 1434.8,1002.18 1434.78,1001.8C1434.73,1001.2 1434.65,1000.6 1434.52,999.992C1434.4,999.389 1434.21,998.836 1433.94,998.334C1433.67,997.831 1433.32,997.396 1432.9,997.027C1432.48,996.659 1431.94,996.385 1431.29,996.206L1431.29,996.139C1432.63,995.603 1433.6,994.821 1434.19,993.794C1434.78,992.766 1435.08,991.549 1435.08,990.142C1435.08,989.226 1434.91,988.372 1434.59,987.579C1434.27,986.786 1433.8,986.088 1433.18,985.485C1432.57,984.881 1431.83,984.407 1430.97,984.061C1430.11,983.714 1429.15,983.541 1428.08,983.541L1415.17,983.541ZM1444.06,987.964L1444.06,1007.46L1449.32,1007.46L1449.32,987.964L1456.49,987.964L1456.49,983.541L1436.89,983.541L1436.89,987.964L1444.06,987.964ZM1459.23,983.541L1459.23,1007.46L1476.15,1007.46L1476.15,1003.04L1464.5,1003.04L1464.5,983.541L1459.23,983.541ZM1479.1,983.541L1479.1,1007.46L1497.26,1007.46L1497.26,1003.04L1484.36,1003.04L1484.36,997.178L1495.96,997.178L1495.96,993.09L1484.36,993.09L1484.36,987.964L1497,987.964L1497,983.541L1479.1,983.541ZM1332.71,720.609C1331,720.609 1329.3,721.091 1327.6,722.055C1325.9,723.019 1324.36,724.405 1323,726.213C1321.63,728.021 1320.52,730.251 1319.67,732.902C1318.82,735.554 1318.39,738.567 1318.39,741.941C1318.39,745.316 1318.82,748.329 1319.67,750.98C1320.52,753.632 1321.63,755.862 1323,757.669C1324.36,759.477 1325.9,760.863 1327.6,761.827C1329.3,762.792 1331,763.274 1332.71,763.274C1334.41,763.274 1336.11,762.792 1337.81,761.827C1339.52,760.863 1341.05,759.477 1342.42,757.669C1343.78,755.862 1344.89,753.632 1345.74,750.98C1346.59,748.329 1347.02,745.316 1347.02,741.941C1347.02,738.567 1346.59,735.554 1345.74,732.902C1344.89,730.251 1343.78,728.021 1342.42,726.213C1341.05,724.405 1339.52,723.019 1337.81,722.055C1336.11,721.091 1334.41,720.609 1332.71,720.609ZM1332.71,709.521C1335.17,709.521 1337.68,710.184 1340.23,711.51C1342.79,712.835 1345.12,714.824 1347.22,717.475C1349.33,720.127 1351.05,723.481 1352.4,727.539C1353.74,731.597 1354.41,736.397 1354.41,741.941C1354.41,747.485 1353.74,752.286 1352.4,756.344C1351.05,760.401 1349.33,763.756 1347.22,766.407C1345.12,769.059 1342.79,770.987 1340.23,772.192C1337.68,773.397 1335.17,774 1332.71,774C1330.24,774 1327.73,773.397 1325.18,772.192C1322.63,770.987 1320.3,769.059 1318.19,766.407C1316.09,763.756 1314.36,760.401 1313.02,756.344C1311.67,752.286 1311,747.485 1311,741.941C1311,736.397 1311.67,731.597 1313.02,727.539C1314.36,723.481 1316.09,720.127 1318.19,717.475C1320.3,714.824 1322.63,712.835 1325.18,711.51C1327.73,710.184 1330.24,709.521 1332.71,709.521ZM1385.46,738.446C1387.07,738.446 1388.41,738.225 1389.49,737.783C1390.57,737.341 1391.42,736.719 1392.04,735.915C1392.67,735.112 1393.12,734.168 1393.39,733.083C1393.66,731.998 1393.79,730.813 1393.79,729.528C1393.79,728.242 1393.66,727.057 1393.39,725.972C1393.12,724.887 1392.67,723.943 1392.04,723.14C1391.42,722.336 1390.57,721.714 1389.49,721.272C1388.41,720.83 1387.07,720.609 1385.46,720.609L1373.83,720.609L1373.83,738.446L1385.46,738.446ZM1387.21,710.244C1389.36,710.244 1391.31,710.586 1393.05,711.269C1394.8,711.952 1396.3,713.036 1397.56,714.523C1398.81,716.009 1399.77,717.937 1400.44,720.308C1401.12,722.678 1401.45,725.591 1401.45,729.045C1401.45,734.348 1400.58,738.406 1398.83,741.218C1397.08,744.03 1394.73,745.918 1391.78,746.883L1400.71,769.782C1401.03,770.585 1401.4,771.067 1401.82,771.228C1402.25,771.389 1402.64,771.469 1403,771.469L1403,773.638L1390.43,773.638L1390.43,771.469C1390.84,771.469 1391.18,771.349 1391.47,771.107C1391.76,770.866 1391.91,770.545 1391.91,770.143C1391.91,769.742 1391.82,769.28 1391.64,768.757C1391.46,768.235 1391.19,767.532 1390.84,766.648L1383.44,747.847L1373.83,747.847L1373.83,769.3C1373.83,770.023 1373.98,770.565 1374.27,770.927C1374.56,771.288 1375.09,771.469 1375.85,771.469L1375.85,773.638L1364.22,773.638L1364.22,771.469C1365.52,771.469 1366.17,770.746 1366.17,769.3L1366.17,714.583C1366.17,713.137 1365.52,712.414 1364.22,712.414L1364.22,710.244L1387.21,710.244ZM1412.94,771.469C1414.11,771.469 1414.69,770.746 1414.69,769.3L1414.69,714.583C1414.69,713.137 1414.11,712.414 1412.94,712.414L1412.94,710.244L1424.1,710.244L1424.1,712.414C1422.93,712.414 1422.35,713.137 1422.35,714.583L1422.35,769.3C1422.35,770.746 1422.93,771.469 1424.1,771.469L1424.1,773.638L1412.94,773.638L1412.94,771.469ZM1467.71,729.769L1466.37,729.045C1466.46,728.563 1466.5,728.081 1466.5,727.599C1466.5,726.394 1466.09,725.309 1465.26,724.345C1464.43,723.381 1463.38,722.557 1462.1,721.874C1460.82,721.192 1459.43,720.689 1457.93,720.368C1456.43,720.047 1455.01,719.886 1453.67,719.886C1452.01,719.886 1450.36,720.308 1448.73,721.151C1447.09,721.995 1445.64,723.301 1444.36,725.068C1443.08,726.836 1442.05,729.126 1441.27,731.938C1440.49,734.75 1440.09,738.165 1440.09,742.182C1440.09,746.119 1440.49,749.514 1441.27,752.366C1442.05,755.219 1443.08,757.529 1444.36,759.296C1445.64,761.064 1447.09,762.37 1448.73,763.213C1450.36,764.057 1452.01,764.479 1453.67,764.479C1456.22,764.479 1458.52,764.097 1460.56,763.334C1462.59,762.571 1464.33,761.747 1465.76,760.863L1465.76,750.498L1457.16,750.498C1456.54,750.498 1456.06,750.739 1455.75,751.221C1455.44,751.704 1455.24,752.748 1455.15,754.355L1453.94,754.355L1453.94,738.928L1455.15,738.928C1455.24,740.294 1455.44,741.158 1455.75,741.519C1456.06,741.881 1456.54,742.062 1457.16,742.062L1473.96,742.062L1473.96,744.231C1473.07,744.472 1472.51,744.753 1472.28,745.075C1472.06,745.396 1471.95,746.079 1471.95,747.124L1471.95,760.743C1471.95,761.546 1472.08,762.068 1472.35,762.309C1472.62,762.55 1472.93,762.832 1473.29,763.153L1473.29,765.081C1471.81,766.929 1470.26,768.456 1468.62,769.661C1466.98,770.866 1465.33,771.811 1463.65,772.493C1461.97,773.176 1460.29,773.598 1458.61,773.759C1456.93,773.92 1455.28,774 1453.67,774C1450.53,774 1447.67,773.297 1445.1,771.891C1442.52,770.485 1440.32,768.396 1438.48,765.624C1436.64,762.852 1435.22,759.477 1434.21,755.5C1433.2,751.523 1432.7,747.003 1432.7,741.941C1432.7,736.879 1433.2,732.36 1434.21,728.383C1435.22,724.405 1436.64,721.011 1438.48,718.199C1440.32,715.386 1442.52,713.237 1445.1,711.751C1447.67,710.264 1450.53,709.521 1453.67,709.521C1455.64,709.521 1457.52,709.762 1459.31,710.244C1461.1,710.726 1462.69,711.269 1464.08,711.871C1465.47,712.474 1466.63,713.036 1467.54,713.558C1468.46,714.081 1469.03,714.342 1469.26,714.342C1469.66,714.342 1469.98,714.181 1470.2,713.86C1470.42,713.538 1470.65,713.257 1470.87,713.016L1471.68,713.86L1467.71,729.769ZM1483.84,771.469C1485.01,771.469 1485.59,770.746 1485.59,769.3L1485.59,714.583C1485.59,713.137 1485.01,712.414 1483.84,712.414L1483.84,710.244L1495,710.244L1495,712.414C1493.83,712.414 1493.25,713.137 1493.25,714.583L1493.25,769.3C1493.25,770.746 1493.83,771.469 1495,771.469L1495,773.638L1483.84,773.638L1483.84,771.469ZM1506.76,771.469C1507.61,771.469 1508.03,770.746 1508.03,769.3L1508.03,714.583C1508.03,713.137 1507.61,712.414 1506.76,712.414L1506.76,710.244L1518.25,710.244L1518.25,712.414C1517.89,712.414 1517.71,712.815 1517.71,713.619C1517.71,714.262 1518.16,715.386 1519.05,716.993L1538.34,752.909L1538.34,714.583C1538.34,713.137 1537.76,712.414 1536.59,712.414L1536.59,710.244L1546.74,710.244L1546.74,712.414C1545.89,712.414 1545.46,713.137 1545.46,714.583L1545.46,769.3C1545.46,770.746 1545.89,771.469 1546.74,771.469L1546.74,773.638L1535.85,773.638L1535.85,771.469C1536.44,771.469 1536.73,771.107 1536.73,770.384C1536.73,769.822 1536.37,768.898 1535.65,767.612L1515.16,729.287L1515.16,769.3C1515.16,770.746 1515.67,771.469 1516.7,771.469L1516.7,773.638L1506.76,773.638L1506.76,771.469ZM1566.62,693L1293,693L1293,792L1566.62,792L1566.62,693ZM1555.64,703.976L1555.64,781.024C1555.64,781.024 1353.73,781.024 1303.98,781.024C1303.98,781.024 1303.98,703.976 1303.98,703.976C1353.73,703.976 1555.64,703.976 1555.64,703.976L1555.64,703.976Z" style="fill:white;"/>
                            <g id="Layer14">
                                <g transform="matrix(0.822542,0,0,0.822542,318.878,91.3779)">
                                    <path d="M1873.61,336.218L1873.61,492L1890.18,492L1890.18,420.655L1947.41,420.655L1947.41,403.2L1890.18,403.2L1890.18,353.673L1955.44,353.673L1955.44,336.218L1873.61,336.218Z" style="fill:white;fill-rule:nonzero;"/>
                                    <path d="M1985.62,427.636L2006.74,354.982L2007.09,354.982L2027.85,427.636L1985.62,427.636ZM1998.01,336.218L1949.51,492L1966.43,492L1980.39,445.091L2033.08,445.091L2046.69,492L2065.01,492L2016.33,336.218L1998.01,336.218Z" style="fill:white;fill-rule:nonzero;"/>
                                    <path d="M2077.22,336.218L2077.22,492L2093.8,492L2093.8,437.455L2114.56,413.236L2159.58,492L2180.52,492L2125.9,399.055L2178.42,336.218L2156.96,336.218L2093.8,413.891L2093.8,336.218L2077.22,336.218Z" style="fill:white;fill-rule:nonzero;"/>
                                    <path d="M2193.6,336.218L2193.6,492L2280.14,492L2280.14,474.545L2210.18,474.545L2210.18,420.655L2274.91,420.655L2274.91,403.2L2210.18,403.2L2210.18,353.673L2279.62,353.673L2279.62,336.218L2193.6,336.218Z" style="fill:white;fill-rule:nonzero;"/>
                                </g>
                                <g transform="matrix(0.224914,0,0,0.224914,1439.07,428.557)">
                                    <path d="M1936.94,453.164L1936.94,336.218L1920.37,336.218L1920.37,450.109C1920.37,458.691 1918.94,465.527 1916.1,470.618C1913.25,475.709 1908.04,478.255 1900.48,478.255C1896.41,478.255 1893.06,477.491 1890.45,475.964C1887.83,474.436 1885.79,472.291 1884.34,469.527C1882.89,466.764 1881.87,463.491 1881.29,459.709C1880.7,455.927 1880.41,451.782 1880.41,447.273L1880.41,440.727L1863.84,440.727L1863.84,450.327C1863.84,465.164 1866.98,476.4 1873.26,484.036C1879.54,491.673 1888.5,495.491 1900.13,495.491C1907.11,495.491 1912.95,494.291 1917.66,491.891C1922.38,489.491 1926.16,486.291 1929.01,482.291C1931.86,478.291 1933.89,473.745 1935.11,468.655C1936.33,463.564 1936.94,458.4 1936.94,453.164Z" style="fill:white;fill-rule:nonzero;"/>
                                    <rect x="1964.86" y="336.218" width="16.575" height="155.782" style="fill:white;fill-rule:nonzero;"/>
                                    <path d="M2108.8,435.709L2108.8,336.218L2092.23,336.218L2092.23,435.709C2092.23,449.673 2089.47,460.255 2083.94,467.455C2078.42,474.655 2070.36,478.255 2059.78,478.255C2048.61,478.255 2040.06,474.655 2034.13,467.455C2028.2,460.255 2025.23,449.673 2025.23,435.709L2025.23,336.218L2008.65,336.218L2008.65,435.709C2008.65,456.509 2013.16,471.673 2022.18,481.2C2031.19,490.727 2043.73,495.491 2059.78,495.491C2075.48,495.491 2087.58,490.509 2096.07,480.545C2104.56,470.582 2108.8,455.636 2108.8,435.709Z" style="fill:white;fill-rule:nonzero;"/>
                                    <path d="M2247.17,453.164L2247.17,336.218L2230.59,336.218L2230.59,450.109C2230.59,458.691 2229.17,465.527 2226.32,470.618C2223.47,475.709 2218.26,478.255 2210.7,478.255C2206.63,478.255 2203.28,477.491 2200.67,475.964C2198.05,474.436 2196.01,472.291 2194.56,469.527C2193.11,466.764 2192.09,463.491 2191.51,459.709C2190.93,455.927 2190.64,451.782 2190.64,447.273L2190.64,440.727L2174.06,440.727L2174.06,450.327C2174.06,465.164 2177.2,476.4 2183.48,484.036C2189.76,491.673 2198.72,495.491 2210.35,495.491C2217.33,495.491 2223.18,494.291 2227.89,491.891C2232.6,489.491 2236.38,486.291 2239.23,482.291C2242.08,478.291 2244.11,473.745 2245.33,468.655C2246.56,463.564 2247.17,458.4 2247.17,453.164Z" style="fill:white;fill-rule:nonzero;"/>
                                    <rect x="2275.08" y="336.218" width="16.575" height="155.782" style="fill:white;fill-rule:nonzero;"/>
                                    <path d="M2347.84,353.673L2347.84,492L2364.41,492L2364.41,353.673L2405.94,353.673L2405.94,336.218L2306.31,336.218L2306.31,353.673L2347.84,353.673Z" style="fill:white;fill-rule:nonzero;"/>
                                    <path d="M2491.78,381.818L2507.49,381.818C2507.26,373.236 2505.95,365.855 2503.56,359.673C2501.18,353.491 2497.92,348.364 2493.79,344.291C2489.66,340.218 2484.86,337.236 2479.4,335.345C2473.93,333.455 2468,332.509 2461.6,332.509C2455.9,332.509 2450.35,333.418 2444.94,335.236C2439.53,337.055 2434.7,339.818 2430.45,343.527C2426.21,347.236 2422.81,351.964 2420.25,357.709C2417.69,363.455 2416.41,370.255 2416.41,378.109C2416.41,385.236 2417.54,391.164 2419.81,395.891C2422.08,400.618 2425.11,404.473 2428.89,407.455C2432.66,410.436 2436.94,412.836 2441.71,414.655C2446.48,416.473 2451.33,418.073 2456.28,419.455C2461.22,420.836 2466.08,422.182 2470.85,423.491C2475.62,424.8 2479.89,426.509 2483.67,428.618C2487.45,430.727 2490.48,433.455 2492.74,436.8C2495.01,440.145 2496.15,444.509 2496.15,449.891C2496.15,455.564 2495.22,460.218 2493.35,463.855C2491.49,467.491 2489.05,470.364 2486.03,472.473C2483,474.582 2479.6,476.073 2475.82,476.945C2472.04,477.818 2468.29,478.255 2464.57,478.255C2459.91,478.255 2455.38,477.527 2450.96,476.073C2446.54,474.618 2442.67,472.364 2439.35,469.309C2436.04,466.255 2433.36,462.364 2431.33,457.636C2429.29,452.909 2428.27,447.273 2428.27,440.727L2412.57,440.727C2412.57,450.182 2413.94,458.364 2416.67,465.273C2419.41,472.182 2423.13,477.855 2427.84,482.291C2432.55,486.727 2438.02,490.036 2444.24,492.218C2450.46,494.4 2457.06,495.491 2464.04,495.491C2469.74,495.491 2475.47,494.655 2481.23,492.982C2486.99,491.309 2492.19,488.618 2496.84,484.909C2501.5,481.2 2505.31,476.4 2508.27,470.509C2511.24,464.618 2512.72,457.527 2512.72,449.236C2512.72,441.527 2511.59,435.127 2509.32,430.036C2507.05,424.945 2504.03,420.727 2500.25,417.382C2496.47,414.036 2492.19,411.382 2487.42,409.418C2482.65,407.455 2477.8,405.745 2472.85,404.291C2467.91,402.836 2463.05,401.491 2458.28,400.255C2453.51,399.018 2449.24,397.455 2445.46,395.564C2441.68,393.673 2438.66,391.236 2436.39,388.255C2434.12,385.273 2432.99,381.382 2432.99,376.582C2432.99,371.491 2433.77,367.236 2435.34,363.818C2436.91,360.4 2439.01,357.673 2441.62,355.636C2444.24,353.6 2447.23,352.145 2450.61,351.273C2453.98,350.4 2457.41,349.964 2460.9,349.964C2469.51,349.964 2476.58,352.473 2482.1,357.491C2487.63,362.509 2490.85,370.618 2491.78,381.818Z" style="fill:white;fill-rule:nonzero;"/>
                                    <path d="M2632.24,435.709L2632.24,336.218L2615.66,336.218L2615.66,435.709C2615.66,449.673 2612.9,460.255 2607.38,467.455C2601.85,474.655 2593.8,478.255 2583.21,478.255C2572.04,478.255 2563.49,474.655 2557.56,467.455C2551.63,460.255 2548.66,449.673 2548.66,435.709L2548.66,336.218L2532.09,336.218L2532.09,435.709C2532.09,456.509 2536.6,471.673 2545.61,481.2C2554.62,490.727 2567.16,495.491 2583.21,495.491C2598.91,495.491 2611.01,490.509 2619.5,480.545C2627.99,470.582 2632.24,455.636 2632.24,435.709Z" style="fill:white;fill-rule:nonzero;"/>
                                    <path d="M2779.32,381.818L2795.03,381.818C2794.79,373.236 2793.49,365.855 2791.1,359.673C2788.72,353.491 2785.46,348.364 2781.33,344.291C2777.2,340.218 2772.4,337.236 2766.94,335.345C2761.47,333.455 2755.54,332.509 2749.14,332.509C2743.44,332.509 2737.89,333.418 2732.48,335.236C2727.07,337.055 2722.24,339.818 2717.99,343.527C2713.75,347.236 2710.35,351.964 2707.79,357.709C2705.23,363.455 2703.95,370.255 2703.95,378.109C2703.95,385.236 2705.08,391.164 2707.35,395.891C2709.62,400.618 2712.64,404.473 2716.42,407.455C2720.2,410.436 2724.48,412.836 2729.25,414.655C2734.02,416.473 2738.87,418.073 2743.82,419.455C2748.76,420.836 2753.62,422.182 2758.39,423.491C2763.16,424.8 2767.43,426.509 2771.21,428.618C2774.99,430.727 2778.01,433.455 2780.28,436.8C2782.55,440.145 2783.69,444.509 2783.69,449.891C2783.69,455.564 2782.76,460.218 2780.89,463.855C2779.03,467.491 2776.59,470.364 2773.57,472.473C2770.54,474.582 2767.14,476.073 2763.36,476.945C2759.58,477.818 2755.83,478.255 2752.11,478.255C2747.45,478.255 2742.92,477.527 2738.5,476.073C2734.08,474.618 2730.21,472.364 2726.89,469.309C2723.58,466.255 2720.9,462.364 2718.87,457.636C2716.83,452.909 2715.81,447.273 2715.81,440.727L2700.11,440.727C2700.11,450.182 2701.48,458.364 2704.21,465.273C2706.94,472.182 2710.67,477.855 2715.38,482.291C2720.09,486.727 2725.55,490.036 2731.78,492.218C2738,494.4 2744.6,495.491 2751.58,495.491C2757.28,495.491 2763.01,494.655 2768.77,492.982C2774.53,491.309 2779.73,488.618 2784.38,484.909C2789.04,481.2 2792.85,476.4 2795.81,470.509C2798.78,464.618 2800.26,457.527 2800.26,449.236C2800.26,441.527 2799.13,435.127 2796.86,430.036C2794.59,424.945 2791.57,420.727 2787.79,417.382C2784.01,414.036 2779.73,411.382 2774.96,409.418C2770.19,407.455 2765.34,405.745 2760.39,404.291C2755.45,402.836 2750.59,401.491 2745.82,400.255C2741.05,399.018 2736.78,397.455 2733,395.564C2729.22,393.673 2726.2,391.236 2723.93,388.255C2721.66,385.273 2720.53,381.382 2720.53,376.582C2720.53,371.491 2721.31,367.236 2722.88,363.818C2724.45,360.4 2726.54,357.673 2729.16,355.636C2731.78,353.6 2734.77,352.145 2738.15,351.273C2741.52,350.4 2744.95,349.964 2748.44,349.964C2757.05,349.964 2764.12,352.473 2769.64,357.491C2775.16,362.509 2778.39,370.618 2779.32,381.818Z" style="fill:white;fill-rule:nonzero;"/>
                                    <path d="M2871.8,428.291L2919.43,336.218L2900.59,336.218L2864.12,410.4L2826.78,336.218L2807.07,336.218L2855.22,428.291L2855.22,492L2871.8,492L2871.8,428.291Z" style="fill:white;fill-rule:nonzero;"/>
                                    <path d="M3005.45,381.818L3021.15,381.818C3020.92,373.236 3019.61,365.855 3017.22,359.673C3014.84,353.491 3011.58,348.364 3007.45,344.291C3003.32,340.218 2998.53,337.236 2993.06,335.345C2987.59,333.455 2981.66,332.509 2975.26,332.509C2969.56,332.509 2964.01,333.418 2958.6,335.236C2953.19,337.055 2948.36,339.818 2944.12,343.527C2939.87,347.236 2936.47,351.964 2933.91,357.709C2931.35,363.455 2930.07,370.255 2930.07,378.109C2930.07,385.236 2931.21,391.164 2933.47,395.891C2935.74,400.618 2938.77,404.473 2942.55,407.455C2946.33,410.436 2950.6,412.836 2955.37,414.655C2960.14,416.473 2965,418.073 2969.94,419.455C2974.88,420.836 2979.74,422.182 2984.51,423.491C2989.28,424.8 2993.55,426.509 2997.33,428.618C3001.11,430.727 3004.14,433.455 3006.41,436.8C3008.68,440.145 3009.81,444.509 3009.81,449.891C3009.81,455.564 3008.88,460.218 3007.02,463.855C3005.16,467.491 3002.71,470.364 2999.69,472.473C2996.66,474.582 2993.26,476.073 2989.48,476.945C2985.7,477.818 2981.95,478.255 2978.23,478.255C2973.58,478.255 2969.04,477.527 2964.62,476.073C2960.2,474.618 2956.33,472.364 2953.02,469.309C2949.7,466.255 2947.03,462.364 2944.99,457.636C2942.95,452.909 2941.94,447.273 2941.94,440.727L2926.23,440.727C2926.23,450.182 2927.6,458.364 2930.33,465.273C2933.07,472.182 2936.79,477.855 2941.5,482.291C2946.21,486.727 2951.68,490.036 2957.9,492.218C2964.12,494.4 2970.73,495.491 2977.7,495.491C2983.4,495.491 2989.13,494.655 2994.89,492.982C3000.65,491.309 3005.85,488.618 3010.51,484.909C3015.16,481.2 3018.97,476.4 3021.93,470.509C3024.9,464.618 3026.38,457.527 3026.38,449.236C3026.38,441.527 3025.25,435.127 3022.98,430.036C3020.71,424.945 3017.69,420.727 3013.91,417.382C3010.13,414.036 3005.85,411.382 3001.09,409.418C2996.32,407.455 2991.46,405.745 2986.52,404.291C2981.57,402.836 2976.72,401.491 2971.95,400.255C2967.18,399.018 2962.9,397.455 2959.12,395.564C2955.34,393.673 2952.32,391.236 2950.05,388.255C2947.78,385.273 2946.65,381.382 2946.65,376.582C2946.65,371.491 2947.43,367.236 2949,363.818C2950.57,360.4 2952.67,357.673 2955.28,355.636C2957.9,353.6 2960.9,352.145 2964.27,351.273C2967.64,350.4 2971.08,349.964 2974.56,349.964C2983.17,349.964 2990.24,352.473 2995.76,357.491C3001.29,362.509 3004.52,370.618 3005.45,381.818Z" style="fill:white;fill-rule:nonzero;"/>
                                    <path d="M3074.72,353.673L3074.72,492L3091.29,492L3091.29,353.673L3132.82,353.673L3132.82,336.218L3033.19,336.218L3033.19,353.673L3074.72,353.673Z" style="fill:white;fill-rule:nonzero;"/>
                                    <path d="M3146.6,336.218L3146.6,492L3233.14,492L3233.14,474.545L3163.18,474.545L3163.18,420.655L3227.91,420.655L3227.91,403.2L3163.18,403.2L3163.18,353.673L3232.62,353.673L3232.62,336.218L3146.6,336.218Z" style="fill:white;fill-rule:nonzero;"/>
                                    <path d="M3253.55,336.218L3253.55,492L3269.26,492L3269.26,362.4L3269.61,362.4L3308.51,492L3322.65,492L3361.56,362.4L3361.91,362.4L3361.91,492L3377.61,492L3377.61,336.218L3354.93,336.218L3315.49,467.127L3276.24,336.218L3253.55,336.218Z" style="fill:white;fill-rule:nonzero;"/>
                                </g>
                                <g transform="matrix(0.224914,0,0,0.224914,1807.87,428.557)">
                                    <path d="M1922.64,492L1966.96,336.218L1949.68,336.218L1913.74,471.273L1913.39,471.273L1877.8,336.218L1860,336.218L1903.79,492L1922.64,492Z" style="fill:white;fill-rule:nonzero;"/>
                                    <path d="M2030.81,424.8L1978.99,424.8C1979.23,420.436 1979.98,416.327 1981.26,412.473C1982.54,408.618 1984.29,405.236 1986.5,402.327C1988.71,399.418 1991.35,397.127 1994.43,395.455C1997.52,393.782 2000.98,392.945 2004.82,392.945C2008.54,392.945 2011.94,393.782 2015.02,395.455C2018.11,397.127 2020.78,399.382 2023.05,402.218C2025.32,405.055 2027.12,408.436 2028.46,412.364C2029.8,416.291 2030.58,420.436 2030.81,424.8ZM2045.12,456.218L2030.47,456.218C2029.18,463.636 2026.54,469.164 2022.53,472.8C2018.51,476.436 2013.37,478.255 2007.09,478.255C2002.2,478.255 1997.95,477.236 1994.35,475.2C1990.74,473.164 1987.78,470.436 1985.45,467.018C1983.12,463.6 1981.44,459.673 1980.39,455.236C1979.34,450.8 1978.88,446.109 1978.99,441.164L2046.52,441.164C2046.75,434.327 2046.26,427.127 2045.03,419.564C2043.81,412 2041.6,405.018 2038.4,398.618C2035.21,392.218 2030.96,386.945 2025.67,382.8C2020.37,378.655 2013.72,376.582 2005.69,376.582C1999.52,376.582 1993.85,378.036 1988.68,380.945C1983.5,383.855 1979.02,387.927 1975.24,393.164C1971.46,398.4 1968.53,404.582 1966.43,411.709C1964.34,418.836 1963.29,426.691 1963.29,435.273C1963.52,443.855 1964.54,451.782 1966.34,459.055C1968.15,466.327 1970.85,472.582 1974.46,477.818C1978.06,483.055 1982.51,487.127 1987.81,490.036C1993.1,492.945 1999.35,494.4 2006.56,494.4C2016.8,494.4 2025.29,491.2 2032.04,484.8C2038.78,478.4 2043.14,468.873 2045.12,456.218Z" style="fill:white;fill-rule:nonzero;"/>
                                    <path d="M2061.35,379.2L2061.35,492L2076.18,492L2076.18,441.818C2076.18,434.545 2076.76,428.109 2077.92,422.509C2079.09,416.909 2080.95,412.145 2083.51,408.218C2086.07,404.291 2089.44,401.309 2093.63,399.273C2097.81,397.236 2102.87,396.218 2108.8,396.218L2108.8,376.582C2100.78,376.291 2094.15,378.327 2088.91,382.691C2083.68,387.055 2079.26,393.818 2075.66,402.982L2075.31,402.982L2075.31,379.2L2061.35,379.2Z" style="fill:white;fill-rule:nonzero;"/>
                                    <path d="M2129.05,456.436L2114.21,456.436C2114.45,463.418 2115.61,469.345 2117.7,474.218C2119.8,479.091 2122.59,483.018 2126.08,486C2129.57,488.982 2133.58,491.127 2138.12,492.436C2142.65,493.745 2147.42,494.4 2152.43,494.4C2156.96,494.4 2161.53,493.855 2166.12,492.764C2170.72,491.673 2174.85,489.745 2178.51,486.982C2182.17,484.218 2185.14,480.582 2187.41,476.073C2189.68,471.564 2190.81,465.891 2190.81,459.055C2190.81,453.673 2189.97,449.164 2188.28,445.527C2186.59,441.891 2184.38,438.873 2181.65,436.473C2178.92,434.073 2175.78,432.145 2172.23,430.691C2168.68,429.236 2165.05,428 2161.32,426.982C2157.83,425.964 2154.34,424.982 2150.86,424.036C2147.37,423.091 2144.22,421.927 2141.43,420.545C2138.64,419.164 2136.34,417.418 2134.54,415.309C2132.74,413.2 2131.84,410.545 2131.84,407.345C2131.84,404.436 2132.42,402.073 2133.58,400.255C2134.74,398.436 2136.26,396.982 2138.12,395.891C2139.98,394.8 2142.04,394.036 2144.31,393.6C2146.58,393.164 2148.82,392.945 2151.03,392.945C2153.47,392.945 2155.89,393.273 2158.27,393.927C2160.65,394.582 2162.84,395.636 2164.81,397.091C2166.79,398.545 2168.42,400.473 2169.7,402.873C2170.98,405.273 2171.73,408.291 2171.97,411.927L2186.8,411.927C2186.45,405.091 2185.28,399.382 2183.31,394.8C2181.33,390.218 2178.68,386.582 2175.37,383.891C2172.05,381.2 2168.24,379.309 2163.94,378.218C2159.64,377.127 2154.93,376.582 2149.81,376.582C2145.85,376.582 2141.87,377.2 2137.86,378.436C2133.84,379.673 2130.24,381.564 2127.04,384.109C2123.84,386.655 2121.22,389.964 2119.19,394.036C2117.15,398.109 2116.13,402.982 2116.13,408.655C2116.13,415.927 2117.59,421.6 2120.49,425.673C2123.4,429.745 2127.04,432.909 2131.4,435.164C2135.76,437.418 2140.5,439.164 2145.62,440.4C2150.74,441.636 2155.48,443.018 2159.84,444.545C2164.2,446.073 2167.84,448.073 2170.74,450.545C2173.65,453.018 2175.11,456.655 2175.11,461.455C2175.11,464.945 2174.41,467.818 2173.01,470.073C2171.62,472.327 2169.84,474.036 2167.69,475.2C2165.54,476.364 2163.18,477.164 2160.62,477.6C2158.07,478.036 2155.62,478.255 2153.3,478.255C2150.27,478.255 2147.34,477.891 2144.49,477.164C2141.64,476.436 2139.08,475.236 2136.81,473.564C2134.54,471.891 2132.71,469.636 2131.31,466.8C2129.92,463.964 2129.16,460.509 2129.05,456.436Z" style="fill:white;fill-rule:nonzero;"/>
                                    <path d="M2222.91,358.909L2222.91,336.218L2208.08,336.218L2208.08,358.909L2222.91,358.909ZM2208.08,379.2L2208.08,492L2222.91,492L2222.91,379.2L2208.08,379.2Z" style="fill:white;fill-rule:nonzero;"/>
                                    <path d="M2256.76,435.709C2256.76,428.873 2257.49,422.8 2258.94,417.491C2260.4,412.182 2262.4,407.709 2264.96,404.073C2267.52,400.436 2270.52,397.673 2273.95,395.782C2277.38,393.891 2281.01,392.945 2284.85,392.945C2288.69,392.945 2292.33,393.891 2295.76,395.782C2299.19,397.673 2302.18,400.436 2304.74,404.073C2307.3,407.709 2309.31,412.182 2310.76,417.491C2312.22,422.8 2312.94,428.873 2312.94,435.709C2312.94,442.545 2312.22,448.618 2310.76,453.927C2309.31,459.236 2307.3,463.673 2304.74,467.236C2302.18,470.8 2299.19,473.527 2295.76,475.418C2292.33,477.309 2288.69,478.255 2284.85,478.255C2281.01,478.255 2277.38,477.309 2273.95,475.418C2270.52,473.527 2267.52,470.8 2264.96,467.236C2262.4,463.673 2260.4,459.236 2258.94,453.927C2257.49,448.618 2256.76,442.545 2256.76,435.709ZM2241.06,435.709C2241.06,444 2241.99,451.709 2243.85,458.836C2245.71,465.964 2248.5,472.182 2252.23,477.491C2255.95,482.8 2260.54,486.945 2266.01,489.927C2271.48,492.909 2277.76,494.4 2284.85,494.4C2292.07,494.4 2298.38,492.909 2303.78,489.927C2309.19,486.945 2313.76,482.8 2317.48,477.491C2321.2,472.182 2323.99,465.964 2325.86,458.836C2327.72,451.709 2328.65,444 2328.65,435.709C2328.65,427.418 2327.72,419.673 2325.86,412.473C2323.99,405.273 2321.2,399.018 2317.48,393.709C2313.76,388.4 2309.19,384.218 2303.78,381.164C2298.38,378.109 2292.07,376.582 2284.85,376.582C2277.76,376.582 2271.48,378.109 2266.01,381.164C2260.54,384.218 2255.95,388.4 2252.23,393.709C2248.5,399.018 2245.71,405.273 2243.85,412.473C2241.99,419.673 2241.06,427.418 2241.06,435.709Z" style="fill:white;fill-rule:nonzero;"/>
                                    <path d="M2346.1,379.2L2346.1,492L2360.93,492L2360.93,428.291C2360.93,423.2 2361.48,418.509 2362.58,414.218C2363.69,409.927 2365.35,406.182 2367.56,402.982C2369.77,399.782 2372.53,397.309 2375.84,395.564C2379.16,393.818 2383.08,392.945 2387.62,392.945C2393.32,392.945 2397.8,394.982 2401.06,399.055C2404.31,403.127 2405.94,408.655 2405.94,415.636L2405.94,492L2420.77,492L2420.77,417.818C2420.77,411.709 2420.28,406.145 2419.29,401.127C2418.3,396.109 2416.58,391.782 2414.14,388.145C2411.7,384.509 2408.5,381.673 2404.55,379.636C2400.59,377.6 2395.65,376.582 2389.72,376.582C2376.34,376.582 2366.57,383.418 2360.4,397.091L2360.05,397.091L2360.05,379.2L2346.1,379.2Z" style="fill:white;fill-rule:nonzero;"/>
                                    <path d="M2488.12,392.073L2502.95,392.073C2502.83,387.418 2503.21,382.8 2504.09,378.218C2504.96,373.636 2506.38,369.527 2508.36,365.891C2510.34,362.255 2512.87,359.309 2515.95,357.055C2519.03,354.8 2522.72,353.673 2527.03,353.673C2530.29,353.673 2533.37,354.327 2536.28,355.636C2539.18,356.945 2541.71,358.836 2543.87,361.309C2546.02,363.782 2547.73,366.727 2549.01,370.145C2550.29,373.564 2550.93,377.382 2550.93,381.6C2550.93,386.982 2550.26,391.709 2548.93,395.782C2547.59,399.855 2545.61,403.636 2542.99,407.127C2540.38,410.618 2537.09,414.073 2533.14,417.491C2529.18,420.909 2524.59,424.655 2519.35,428.727C2515.05,431.927 2510.92,435.345 2506.96,438.982C2503.01,442.618 2499.46,446.836 2496.32,451.636C2493.18,456.436 2490.59,462.073 2488.56,468.545C2486.52,475.018 2485.21,482.836 2484.63,492L2565.41,492L2565.41,475.636L2501.9,475.636C2502.6,470.836 2504.09,466.582 2506.35,462.873C2508.62,459.164 2511.36,455.709 2514.55,452.509C2517.75,449.309 2521.27,446.291 2525.11,443.455C2528.95,440.618 2532.79,437.745 2536.62,434.836C2540.46,431.782 2544.19,428.582 2547.79,425.236C2551.4,421.891 2554.6,418.145 2557.39,414C2560.18,409.855 2562.42,405.164 2564.11,399.927C2565.79,394.691 2566.64,388.655 2566.64,381.818C2566.64,374.545 2565.62,368.145 2563.58,362.618C2561.55,357.091 2558.78,352.473 2555.29,348.764C2551.8,345.055 2547.7,342.218 2542.99,340.255C2538.28,338.291 2533.25,337.309 2527.9,337.309C2521.39,337.309 2515.57,338.691 2510.45,341.455C2505.34,344.218 2501.06,348.036 2497.63,352.909C2494.2,357.782 2491.67,363.564 2490.04,370.255C2488.41,376.945 2487.77,384.218 2488.12,392.073Z" style="fill:white;fill-rule:nonzero;"/>
                                    <rect x="2591.93" y="467.782" width="19.367" height="24.218" style="fill:white;fill-rule:nonzero;"/>
                                    <path d="M2648.99,415.855C2648.99,412.073 2649.02,407.891 2649.08,403.309C2649.13,398.727 2649.43,394.145 2649.95,389.564C2650.47,384.982 2651.23,380.509 2652.22,376.145C2653.2,371.782 2654.66,367.964 2656.58,364.691C2658.5,361.418 2660.91,358.764 2663.82,356.727C2666.73,354.691 2670.28,353.673 2674.46,353.673C2678.65,353.673 2682.2,354.691 2685.11,356.727C2688.01,358.764 2690.43,361.418 2692.35,364.691C2694.27,367.964 2695.72,371.782 2696.71,376.145C2697.7,380.509 2698.45,384.982 2698.98,389.564C2699.5,394.145 2699.79,398.727 2699.85,403.309C2699.91,407.891 2699.94,412.073 2699.94,415.855C2699.94,421.673 2699.79,428.182 2699.5,435.382C2699.21,442.582 2698.28,449.345 2696.71,455.673C2695.14,462 2692.61,467.345 2689.12,471.709C2685.63,476.073 2680.74,478.255 2674.46,478.255C2668.18,478.255 2663.3,476.073 2659.81,471.709C2656.32,467.345 2653.79,462 2652.22,455.673C2650.65,449.345 2649.72,442.582 2649.43,435.382C2649.13,428.182 2648.99,421.673 2648.99,415.855ZM2633.29,416.073C2633.29,421.745 2633.4,427.636 2633.64,433.745C2633.87,439.855 2634.45,445.818 2635.38,451.636C2636.31,457.455 2637.65,462.945 2639.39,468.109C2641.14,473.273 2643.52,477.818 2646.55,481.745C2649.57,485.673 2653.38,488.764 2657.97,491.018C2662.57,493.273 2668.07,494.4 2674.46,494.4C2680.98,494.4 2686.5,493.273 2691.04,491.018C2695.57,488.764 2699.36,485.673 2702.38,481.745C2705.4,477.818 2707.79,473.273 2709.53,468.109C2711.28,462.945 2712.62,457.455 2713.55,451.636C2714.48,445.818 2715.06,439.855 2715.29,433.745C2715.52,427.636 2715.64,421.745 2715.64,416.073C2715.64,410.4 2715.52,404.509 2715.29,398.4C2715.06,392.291 2714.48,386.327 2713.55,380.509C2712.62,374.691 2711.28,369.164 2709.53,363.927C2707.79,358.691 2705.4,354.109 2702.38,350.182C2699.36,346.255 2695.55,343.127 2690.95,340.8C2686.36,338.473 2680.86,337.309 2674.46,337.309C2668.07,337.309 2662.57,338.473 2657.97,340.8C2653.38,343.127 2649.57,346.255 2646.55,350.182C2643.52,354.109 2641.14,358.691 2639.39,363.927C2637.65,369.164 2636.31,374.691 2635.38,380.509C2634.45,386.327 2633.87,392.291 2633.64,398.4C2633.4,404.509 2633.29,410.4 2633.29,416.073Z" style="fill:white;fill-rule:nonzero;"/>
                                    <path d="M2764.84,353.673L2764.84,492L2781.42,492L2781.42,353.673L2822.94,353.673L2822.94,336.218L2723.32,336.218L2723.32,353.673L2764.84,353.673Z" style="fill:white;fill-rule:nonzero;"/>
                                </g>
                            </g>
                        </g>
                    </g>
                    <g transform="matrix(2.49354,0,0,1.29228,-1922.91,-330.253)">
                        <path d="M1233.15,1126.19C1234.42,1126.19 1235.06,1125.59 1235.06,1124.38L1235.06,1078.75C1235.06,1077.54 1234.42,1076.94 1233.15,1076.94L1233.15,1075.13L1250.34,1075.13L1250.34,1076.94C1249.8,1076.94 1249.53,1077.27 1249.53,1077.94C1249.53,1078.48 1250.2,1079.42 1251.54,1080.76L1280.39,1110.71L1280.39,1078.75C1280.39,1077.54 1279.52,1076.94 1277.78,1076.94L1277.78,1075.13L1292.95,1075.13L1292.95,1076.94C1291.68,1076.94 1291.04,1077.54 1291.04,1078.75L1291.04,1124.38C1291.04,1125.59 1291.68,1126.19 1292.95,1126.19L1292.95,1128L1276.67,1128L1276.67,1126.19C1277.54,1126.19 1277.98,1125.89 1277.98,1125.29C1277.98,1124.82 1277.44,1124.05 1276.37,1122.97L1245.71,1091.01L1245.71,1124.38C1245.71,1125.59 1246.48,1126.19 1248.02,1126.19L1248.02,1128L1233.15,1128L1233.15,1126.19Z" style="fill:white;fill-rule:nonzero;"/>
                        <path d="M1310.54,1126.19C1312.29,1126.19 1313.16,1125.59 1313.16,1124.38L1313.16,1078.75C1313.16,1077.54 1312.29,1076.94 1310.54,1076.94L1310.54,1075.13L1327.23,1075.13L1327.23,1076.94C1325.49,1076.94 1324.62,1077.54 1324.62,1078.75L1324.62,1124.38C1324.62,1125.59 1325.49,1126.19 1327.23,1126.19L1327.23,1128L1310.54,1128L1310.54,1126.19Z" style="fill:white;fill-rule:nonzero;"/>
                        <path d="M1400.1,1120.76C1399.9,1120.76 1399.72,1120.75 1399.55,1120.71C1399.38,1120.68 1399.2,1120.66 1399,1120.66C1398.6,1120.66 1397.64,1121.06 1396.13,1121.87C1394.62,1122.67 1392.71,1123.58 1390.4,1124.58C1388.09,1125.59 1385.46,1126.46 1382.51,1127.2C1379.56,1127.93 1376.48,1128.3 1373.27,1128.3C1369.04,1128.3 1364.99,1127.77 1361.1,1126.69C1357.22,1125.62 1353.78,1123.96 1350.8,1121.72C1347.82,1119.47 1345.46,1116.67 1343.71,1113.33C1341.97,1109.97 1341.1,1106.05 1341.1,1101.56C1341.1,1097.14 1341.97,1093.24 1343.71,1089.85C1345.46,1086.47 1347.82,1083.64 1350.8,1081.36C1353.78,1079.08 1357.22,1077.37 1361.1,1076.24C1364.99,1075.1 1369.04,1074.53 1373.27,1074.53C1376.68,1074.53 1379.78,1074.79 1382.56,1075.33C1385.34,1075.87 1387.77,1076.44 1389.85,1077.04C1391.93,1077.64 1393.57,1078.21 1394.78,1078.75C1395.98,1079.28 1396.72,1079.55 1396.99,1079.55C1397.32,1079.55 1397.61,1079.38 1397.84,1079.05C1398.08,1078.71 1398.26,1078.45 1398.39,1078.25L1399.9,1079.45L1392.06,1091.61L1391.06,1090.91C1391.06,1090.71 1391.04,1090.51 1391.01,1090.31C1390.97,1090.11 1390.92,1089.87 1390.86,1089.6C1390.72,1088.87 1390.05,1088.11 1388.85,1087.34C1387.64,1086.57 1386.15,1085.88 1384.37,1085.28C1382.6,1084.68 1380.72,1084.17 1378.74,1083.77C1376.77,1083.37 1374.94,1083.17 1373.27,1083.17C1370.45,1083.17 1367.75,1083.57 1365.17,1084.38C1362.59,1085.18 1360.35,1086.35 1358.44,1087.89C1356.53,1089.44 1355.01,1091.33 1353.87,1093.57C1352.73,1095.82 1352.16,1098.38 1352.16,1101.26C1352.16,1104.14 1352.73,1106.71 1353.87,1108.95C1355.01,1111.2 1356.53,1113.09 1358.44,1114.63C1360.35,1116.17 1362.59,1117.35 1365.17,1118.15C1367.75,1118.95 1370.45,1119.36 1373.27,1119.36C1375.41,1119.36 1377.65,1119.1 1380,1118.6C1382.35,1118.1 1384.49,1117.46 1386.43,1116.69C1388.38,1115.92 1390,1115.05 1391.31,1114.08C1392.61,1113.11 1393.27,1112.19 1393.27,1111.31C1393.27,1110.85 1393.13,1110.44 1392.87,1110.11L1394.27,1109.3L1400.91,1119.96L1400.1,1120.76Z" style="fill:white;fill-rule:nonzero;"/>
                        <path d="M1466.54,1085.99C1466.54,1085.25 1466.26,1084.69 1465.69,1084.33C1465.12,1083.96 1464.13,1083.77 1462.72,1083.77L1430.16,1083.77L1430.16,1096.24L1449.86,1096.24C1451.2,1096.24 1452.24,1096.05 1452.97,1095.68C1453.71,1095.32 1454.08,1094.36 1454.08,1092.82L1455.89,1092.82L1455.89,1108.5L1454.08,1108.5C1454.08,1106.96 1453.71,1105.97 1452.97,1105.54C1452.24,1105.1 1451.2,1104.88 1449.86,1104.88L1430.16,1104.88L1430.16,1118.75L1463.73,1118.75C1464.73,1118.75 1465.56,1118.52 1466.19,1118.05C1466.83,1117.58 1467.15,1116.94 1467.15,1116.14L1468.96,1116.14L1468.96,1129.91L1467.15,1129.91C1467.15,1128.9 1466.83,1128.34 1466.19,1128.2C1465.56,1128.07 1464.73,1128 1463.73,1128L1416.89,1128L1416.89,1126.19C1417.36,1126.19 1417.78,1126.04 1418.14,1125.74C1418.51,1125.44 1418.7,1124.99 1418.7,1124.38L1418.7,1078.75C1418.7,1078.14 1418.51,1077.69 1418.14,1077.39C1417.78,1077.09 1417.36,1076.94 1416.89,1076.94L1416.89,1075.13L1462.72,1075.13C1464.13,1075.13 1465.12,1074.91 1465.69,1074.48C1466.26,1074.04 1466.54,1073.45 1466.54,1072.72L1468.35,1072.72L1468.35,1085.99L1466.54,1085.99Z" style="fill:white;fill-rule:nonzero;"/>
                    </g>
                </g>
                <g id="Layer9">
                    <path d="M1562,1172L1288,1172L1288,1272L1562,1272L1562,1172ZM1552,1182L1298,1182L1298,1262L1552,1262L1552,1182Z" style="fill:rgb(105,186,201);"/>
                    <g transform="matrix(0.79969,0,0,1,253.335,-7.28344)">
                        <path d="M1344.39,1251.66C1344.39,1252.87 1345.12,1253.47 1346.6,1253.47L1346.6,1255.28L1331.12,1255.28L1331.12,1253.47C1331.59,1253.47 1332.01,1253.32 1332.38,1253.02C1332.74,1252.72 1332.93,1252.27 1332.93,1251.66L1332.93,1211.66L1316.34,1211.66C1315.74,1211.66 1315.15,1211.83 1314.58,1212.16C1314.01,1212.5 1313.73,1213.13 1313.73,1214.07L1311.92,1214.07L1311.92,1200L1313.73,1200C1313.73,1200.94 1314.01,1201.58 1314.58,1201.91C1315.15,1202.25 1315.74,1202.41 1316.34,1202.41L1360.97,1202.41C1361.58,1202.41 1362.16,1202.25 1362.73,1201.91C1363.3,1201.58 1363.59,1200.94 1363.59,1200L1365.39,1200L1365.39,1214.07L1363.59,1214.07C1363.59,1213.13 1363.3,1212.5 1362.73,1212.16C1362.16,1211.83 1361.58,1211.66 1360.97,1211.66L1344.39,1211.66L1344.39,1251.66Z" style="fill:rgb(105,186,201);fill-rule:nonzero;"/>
                        <path d="M1409.22,1225.93C1411.63,1225.93 1413.64,1225.75 1415.25,1225.38C1416.86,1225.01 1418.13,1224.49 1419.07,1223.82C1420.01,1223.15 1420.68,1222.37 1421.08,1221.46C1421.48,1220.56 1421.68,1219.57 1421.68,1218.5C1421.68,1217.42 1421.48,1216.43 1421.08,1215.53C1420.68,1214.62 1420.01,1213.84 1419.07,1213.17C1418.13,1212.5 1416.86,1211.98 1415.25,1211.61C1413.64,1211.24 1411.63,1211.06 1409.22,1211.06L1391.83,1211.06L1391.83,1225.93L1409.22,1225.93ZM1411.83,1202.41C1415.05,1202.41 1417.96,1202.7 1420.58,1203.27C1423.19,1203.84 1425.43,1204.74 1427.31,1205.98C1429.19,1207.22 1430.63,1208.83 1431.63,1210.81C1432.64,1212.78 1433.14,1215.21 1433.14,1218.09C1433.14,1222.52 1431.84,1225.9 1429.22,1228.25C1426.61,1230.59 1423.09,1232.16 1418.67,1232.97L1432.04,1252.07C1432.51,1252.74 1433.06,1253.14 1433.69,1253.27C1434.33,1253.41 1434.92,1253.47 1435.45,1253.47L1435.45,1255.28L1416.66,1255.28L1416.66,1253.47C1417.26,1253.47 1417.78,1253.37 1418.21,1253.17C1418.65,1252.97 1418.87,1252.7 1418.87,1252.37C1418.87,1252.03 1418.73,1251.65 1418.47,1251.21C1418.2,1250.78 1417.8,1250.19 1417.26,1249.45L1406.2,1233.77L1391.83,1233.77L1391.83,1251.66C1391.83,1252.27 1392.05,1252.72 1392.48,1253.02C1392.92,1253.32 1393.71,1253.47 1394.85,1253.47L1394.85,1255.28L1377.46,1255.28L1377.46,1253.47C1379.4,1253.47 1380.37,1252.87 1380.37,1251.66L1380.37,1206.03C1380.37,1204.83 1379.4,1204.22 1377.46,1204.22L1377.46,1202.41L1411.83,1202.41Z" style="fill:rgb(105,186,201);fill-rule:nonzero;"/>
                        <path d="M1481.99,1234.78L1473.55,1216.08L1464.1,1234.78L1481.99,1234.78ZM1444.1,1253.47C1444.97,1253.34 1445.66,1252.9 1446.16,1252.17C1446.66,1251.43 1447.15,1250.59 1447.62,1249.65L1466.21,1210.55C1466.68,1209.68 1467.1,1208.88 1467.47,1208.14C1467.84,1207.4 1468.02,1206.77 1468.02,1206.23C1468.02,1205.56 1467.79,1205.09 1467.32,1204.83C1466.85,1204.56 1466.35,1204.36 1465.81,1204.22L1465.81,1202.41L1482.8,1202.41L1482.8,1204.22C1482.33,1204.36 1481.86,1204.54 1481.39,1204.77C1480.92,1205.01 1480.68,1205.5 1480.68,1206.23C1480.68,1206.77 1480.8,1207.3 1481.04,1207.84C1481.27,1208.38 1481.62,1209.08 1482.09,1209.95L1503,1250.86C1503.34,1251.6 1503.79,1252.13 1504.36,1252.47C1504.93,1252.8 1505.58,1253.14 1506.32,1253.47L1506.32,1255.28L1488.63,1255.28L1488.63,1253.47C1488.89,1253.47 1489.23,1253.37 1489.63,1253.17C1490.03,1252.97 1490.23,1252.67 1490.23,1252.27C1490.23,1251.6 1489.97,1250.73 1489.43,1249.65L1485.61,1242.22L1461.09,1242.22L1457.47,1249.35C1456.8,1250.76 1456.46,1251.77 1456.46,1252.37C1456.46,1253.11 1457.1,1253.47 1458.37,1253.47L1458.37,1255.28L1444.1,1255.28L1444.1,1253.47Z" style="fill:rgb(105,186,201);fill-rule:nonzero;"/>
                        <path d="M1517.37,1253.47C1519.12,1253.47 1519.99,1252.87 1519.99,1251.66L1519.99,1206.03C1519.99,1204.83 1519.12,1204.22 1517.37,1204.22L1517.37,1202.41L1534.06,1202.41L1534.06,1204.22C1532.32,1204.22 1531.45,1204.83 1531.45,1206.03L1531.45,1251.66C1531.45,1252.87 1532.32,1253.47 1534.06,1253.47L1534.06,1255.28L1517.37,1255.28L1517.37,1253.47Z" style="fill:rgb(105,186,201);fill-rule:nonzero;"/>
                        <path d="M1551.65,1253.47C1552.92,1253.47 1553.56,1252.87 1553.56,1251.66L1553.56,1206.03C1553.56,1204.83 1552.92,1204.22 1551.65,1204.22L1551.65,1202.41L1568.84,1202.41L1568.84,1204.22C1568.3,1204.22 1568.03,1204.56 1568.03,1205.23C1568.03,1205.76 1568.7,1206.7 1570.04,1208.04L1598.89,1238L1598.89,1206.03C1598.89,1204.83 1598.02,1204.22 1596.28,1204.22L1596.28,1202.41L1611.46,1202.41L1611.46,1204.22C1610.18,1204.22 1609.55,1204.83 1609.55,1206.03L1609.55,1251.66C1609.55,1252.87 1610.18,1253.47 1611.46,1253.47L1611.46,1255.28L1595.17,1255.28L1595.17,1253.47C1596.04,1253.47 1596.48,1253.17 1596.48,1252.57C1596.48,1252.1 1595.94,1251.33 1594.87,1250.26L1564.21,1218.29L1564.21,1251.66C1564.21,1252.87 1564.98,1253.47 1566.53,1253.47L1566.53,1255.28L1551.65,1255.28L1551.65,1253.47Z" style="fill:rgb(105,186,201);fill-rule:nonzero;"/>
                    </g>
                </g>
            </g>
        </g>
    </g>
</svg>
